<svg xmlns="http://www.w3.org/2000/svg" aria-hidden="true" role="img" width="16" height="16" fill="currentColor" class="fluent fluent-building-home" viewBox="0 0 16 16"><path d="M3.25 2a.25.25 0 0 0-.25.25v8.5c0 .137.112.25.25.25H5v1H3.25C2.56 12 2 11.44 2 10.749l.002-8.5c0-.69.56-1.25 1.25-1.25h4.503c.69 0 1.25.56 1.25 1.252l-.002 1.998c0 .138.111.25.25.25h.497A1.25 1.25 0 0 1 11 5.698a2.003 2.003 0 0 0-1.52-.199h-.227a1.247 1.247 0 0 1-1.251-1.251l.002-1.999a.25.25 0 0 0-.25-.25H3.25Zm7.43 4.699a1 1 0 0 0-1.361 0l-2.84 2.637a1.5 1.5 0 0 0-.48 1.1v3.563a1 1 0 0 0 1 1h1.5a1 1 0 0 0 1-1v-1h1v1a1 1 0 0 0 1 1h1.5a1 1 0 0 0 1-1v-3.564a1.5 1.5 0 0 0-.48-1.099L10.68 6.7Zm-3.521 3.37l2.84-2.637l2.84 2.637a.5.5 0 0 1 .16.366V14h-1.5v-1a1 1 0 0 0-1-1h-1a1 1 0 0 0-1 1v1h-1.5v-3.564a.5.5 0 0 1 .16-.366Zm-2.16-6.57a.5.5 0 1 1-1 0a.5.5 0 0 1 1 0Zm-.5 2.5a.5.5 0 1 0 0-1a.5.5 0 0 0 0 1Zm.5 1.5a.5.5 0 1 1-1 0a.5.5 0 0 1 1 0Zm1.5-3.5a.5.5 0 1 0 0-1a.5.5 0 0 0 0 1Zm.5 1.5a.5.5 0 1 1-1 0a.5.5 0 0 1 1 0Zm-.5 2.5a.5.5 0 1 0 0-1a.5.5 0 0 0 0 1Z"/></svg>