<svg xmlns="http://www.w3.org/2000/svg" aria-hidden="true" role="img" width="16" height="16" fill="currentColor" class="fluent fluent-calendar-assistant-fill" viewBox="0 0 16 16"><path d="M4.5 14h1.757A5.478 5.478 0 0 1 5 10.5c0-1.86.923-3.505 2.337-4.5H2v5.5A2.5 2.5 0 0 0 4.5 14ZM14 5H2v-.5A2.5 2.5 0 0 1 4.5 2h7A2.5 2.5 0 0 1 14 4.5V5Zm-3.5 10a4.5 4.5 0 1 0 0-9a4.5 4.5 0 0 0 0 9ZM9.408 7.834A.5.5 0 0 1 9.88 7.5h1.18a.5.5 0 0 1 .474.658l-.28.842H12a.5.5 0 0 1 .42.77l-2.25 3.5a.5.5 0 0 1-.902-.401L9.776 11H9a.5.5 0 0 1-.472-.666l.88-2.5Z"/></svg>