<svg xmlns="http://www.w3.org/2000/svg" aria-hidden="true" role="img" width="16" height="16" fill="currentColor" class="fluent fluent-catch-up-fill" viewBox="0 0 16 16"><path d="M6.736 6.668a.25.25 0 0 0-.472 0l-.321.913A1.75 1.75 0 0 1 4.292 8.75H3.25a1.25 1.25 0 1 1 0-1.5h1.042a.25.25 0 0 0 .236-.167l.321-.913c.55-1.559 2.753-1.559 3.302 0l1.113 3.162a.25.25 0 0 0 .472 0l.321-.914a1.75 1.75 0 0 1 1.651-1.168h1.042a1.25 1.25 0 1 1 0 1.5h-1.042a.25.25 0 0 0-.236.167l-.321.913c-.549 1.559-2.753 1.559-3.302 0L6.736 6.668Z"/></svg>