<svg xmlns="http://www.w3.org/2000/svg" aria-hidden="true" role="img" width="16" height="16" fill="currentColor" class="fluent fluent-cloud-off" viewBox="0 0 16 16"><path d="m11.787 12.494l2.36 2.36a.5.5 0 0 0 .707-.708l-13-13a.5.5 0 1 0-.708.708L4.434 5.14a4.33 4.33 0 0 0-.406 1.383C1.965 6.735 1 8.322 1 9.5c0 .573.142 1.332.686 1.954c.556.636 1.46 1.046 2.814 1.046h7c.097 0 .193-.002.287-.006Zm-.994-.994H4.5c-1.146 0-1.742-.34-2.061-.704C2.108 10.418 2 9.927 2 9.5c0-.736.688-2 2.5-2A.5.5 0 0 0 5 7c0-.349.063-.729.196-1.097l5.597 5.597Zm2.63-.556c-.063.054-.13.105-.205.153l.718.718c.049-.037.096-.076.142-.116c.63-.547.922-1.322.922-2.199c0-.943-.469-1.705-1.132-2.218a3.865 3.865 0 0 0-1.89-.753c-.113-1.16-.638-2.022-1.349-2.603C9.841 3.28 8.85 3 8 3c-.91 0-1.658.24-2.25.628l.728.728C6.882 4.136 7.383 4 8 4c.65 0 1.409.22 1.996.7C10.567 5.166 11 5.9 11 7a.5.5 0 0 0 .5.5c.648 0 1.289.212 1.757.574c.462.356.743.844.743 1.426c0 .648-.208 1.123-.578 1.444Z"/></svg>