<svg xmlns="http://www.w3.org/2000/svg" aria-hidden="true" role="img" width="16" height="16" fill="currentColor" class="fluent fluent-cloud-words-fill" viewBox="0 0 16 16"><path d="M8 3c-1.4 0-2.417.567-3.074 1.37a4.204 4.204 0 0 0-.898 2.154C1.965 6.735 1 8.322 1 9.5c0 .573.142 1.332.686 1.954c.556.636 1.46 1.046 2.814 1.046h7c1.075 0 1.957-.262 2.578-.8c.63-.548.922-1.323.922-2.2c0-.943-.469-1.705-1.132-2.218a3.865 3.865 0 0 0-1.89-.753c-.113-1.16-.638-2.022-1.349-2.603C9.841 3.28 8.85 3 8 3ZM6.5 6h3a.5.5 0 0 1 0 1h-3a.5.5 0 0 1 0-1ZM4 9.5a.5.5 0 0 1 .5-.5h2a.5.5 0 0 1 0 1h-2a.5.5 0 0 1-.5-.5ZM9.5 9h2a.5.5 0 0 1 0 1h-2a.5.5 0 0 1 0-1Z"/></svg>