<svg xmlns="http://www.w3.org/2000/svg" aria-hidden="true" role="img" width="16" height="16" fill="currentColor" class="fluent fluent-cloud-sync-fill" viewBox="0 0 16 16"><path d="M4.926 3.37C5.583 2.568 6.6 2 8 2c.85 0 1.841.28 2.63.926c.638.522 1.128 1.273 1.301 2.262a5.5 5.5 0 0 0-6.84 6.312H4.5c-1.354 0-2.258-.41-2.814-1.046C1.142 9.832 1 9.073 1 8.5c0-1.178.965-2.765 3.028-2.976a4.2 4.2 0 0 1 .898-2.153ZM6 10.5a4.5 4.5 0 1 0 9 0a4.5 4.5 0 0 0-9 0Zm6.5-3a.5.5 0 0 1 .5.5v1.5a.5.5 0 0 1-.5.5H11a.5.5 0 0 1 0-1h.468a1.982 1.982 0 0 0-.933-.25a2 2 0 0 0-1.45.586a.5.5 0 0 1-.706-.707A3 3 0 0 1 12 8.152V8a.5.5 0 0 1 .5-.5Zm-.876 5.532A2.999 2.999 0 0 1 9 12.848V13a.5.5 0 0 1-1 0v-1.5a.5.5 0 0 1 .5-.5H10a.5.5 0 0 1 0 1h-.468a1.99 1.99 0 0 0 .933.25a2 2 0 0 0 1.45-.586a.5.5 0 0 1 .706.707c-.285.285-.624.51-.997.66Z"/></svg>