<svg xmlns="http://www.w3.org/2000/svg" aria-hidden="true" role="img" width="20" height="20" fill="currentColor" class="fluent fluent-dialpad" viewBox="0 0 20 20"><path d="M6 5a1 1 0 1 0 0-2a1 1 0 0 0 0 2Zm0 4a1 1 0 1 0 0-2a1 1 0 0 0 0 2Zm1 3a1 1 0 1 1-2 0a1 1 0 0 1 2 0Zm3-7a1 1 0 1 0 0-2a1 1 0 0 0 0 2Zm1 3a1 1 0 1 1-2 0a1 1 0 0 1 2 0Zm-1 5a1 1 0 1 0 0-2a1 1 0 0 0 0 2Zm1 3a1 1 0 1 1-2 0a1 1 0 0 1 2 0Zm3-11a1 1 0 1 0 0-2a1 1 0 0 0 0 2Zm1 3a1 1 0 1 1-2 0a1 1 0 0 1 2 0Zm-1 5a1 1 0 1 0 0-2a1 1 0 0 0 0 2Z"/></svg>