<svg xmlns="http://www.w3.org/2000/svg" aria-hidden="true" role="img" width="16" height="16" fill="currentColor" class="fluent fluent-people-call-fill" viewBox="0 0 16 16"><path d="M5.5 7a2.5 2.5 0 1 0 0-5a2.5 2.5 0 0 0 0 5Zm6.918-.223a2 2 0 1 1 .26-.16c-.092.046-.178.1-.26.16ZM8 8a1.5 1.5 0 0 1 1.5 1.5v.094c-.009.25-.188 2.906-4 2.906c-4 0-4-2.925-4-2.925V9.5A1.5 1.5 0 0 1 3 8h5Zm3.198 4.244l.861.287c.344-.26.63-.588.86-.982c.197-.338.326-.681.386-1.029l.025-.174l-.717-.68a.876.876 0 0 1-.226-.888l.031-.085l.326-.767a.784.784 0 0 1 .877-.482l.076.02l.408.13c.404.13.713.476.813.91c.238 1.034-.047 2.292-.855 3.774c-.806 1.48-1.69 2.371-2.65 2.67a1.138 1.138 0 0 1-1.076-.22l-.08-.074l-.31-.31a.88.88 0 0 1-.143-1.03l.045-.074l.467-.686a.786.786 0 0 1 .695-.347c.035.002.07.007.105.014l.082.023Z"/></svg>