<svg xmlns="http://www.w3.org/2000/svg" aria-hidden="true" role="img" width="16" height="16" fill="currentColor" class="fluent fluent-person-call-fill" viewBox="0 0 16 16"><path d="M11.5 8c.042 0 .083.002.124.005l-.136.321l-.048.133l-.008.025c-.203.662-.03 1.41.493 1.907l.305.29a2.48 2.48 0 0 1-.418.714l-.323-.109l-.136-.037l-.028-.006a1.773 1.773 0 0 0-1.835.748l-.481.707l-.072.12l-.013.022a1.887 1.887 0 0 0-.21 1.124A6.91 6.91 0 0 1 8 14c-3.14 0-5-2.029-5-4v-.5A1.5 1.5 0 0 1 4.5 8h7Zm-.301 4.244l.74.246l.121.04c.344-.26.63-.587.86-.981a3.1 3.1 0 0 0 .386-1.029l.025-.174l-.717-.68a.875.875 0 0 1-.226-.888l.03-.085l.326-.767a.784.784 0 0 1 .877-.482l.077.02l.407.13c.404.13.714.476.814.91c.237 1.034-.048 2.292-.855 3.774c-.806 1.48-1.69 2.371-2.651 2.67a1.139 1.139 0 0 1-1.076-.22l-.08-.074l-.309-.31a.88.88 0 0 1-.144-1.03l.046-.074l.467-.686a.785.785 0 0 1 .706-.347a.752.752 0 0 1 .094.014l.082.023ZM8 1.5A2.75 2.75 0 1 1 8 7a2.75 2.75 0 0 1 0-5.5Z"/></svg>