<svg xmlns="http://www.w3.org/2000/svg" aria-hidden="true" role="img" width="16" height="16" fill="currentColor" class="fluent fluent-person-call" viewBox="0 0 16 16"><path d="M11.5 8c.042 0 .083.002.124.005l-.136.321l-.048.133l-.008.025A1.854 1.854 0 0 0 11.35 9H4.5a.5.5 0 0 0-.5.5v.5c0 1.438 1.432 3 4 3c.309 0 .601-.023.877-.065a1.89 1.89 0 0 0-.163 1.029A6.91 6.91 0 0 1 8 14c-3.14 0-5-2.029-5-4v-.5A1.5 1.5 0 0 1 4.5 8h7Zm-.301 4.244l.74.246l.121.04c.344-.26.63-.587.86-.981a3.1 3.1 0 0 0 .386-1.029l.025-.174l-.717-.68a.875.875 0 0 1-.226-.888l.03-.085l.326-.767a.784.784 0 0 1 .877-.482l.077.02l.407.13c.404.13.714.476.814.91c.237 1.034-.048 2.292-.855 3.774c-.806 1.48-1.69 2.371-2.651 2.67a1.139 1.139 0 0 1-1.076-.22l-.08-.074l-.309-.31a.88.88 0 0 1-.144-1.03l.046-.074l.467-.686a.786.786 0 0 1 .704-.347a.762.762 0 0 1 .096.014l.082.023ZM8 1.5A2.75 2.75 0 1 1 8 7a2.75 2.75 0 0 1 0-5.5Zm0 1A1.75 1.75 0 1 0 8 6a1.75 1.75 0 0 0 0-3.5Z"/></svg>