<svg xmlns="http://www.w3.org/2000/svg" aria-hidden="true" role="img" width="16" height="16" fill="currentColor" class="fluent fluent-print-fill" viewBox="0 0 16 16"><path d="M5.5 2A1.5 1.5 0 0 0 4 3.5V4H3a2 2 0 0 0-2 2v4.5A1.5 1.5 0 0 0 2.5 12H4v.5A1.5 1.5 0 0 0 5.5 14h5.1a1.5 1.5 0 0 0 1.5-1.5V12h1.4a1.5 1.5 0 0 0 1.5-1.5V6a2 2 0 0 0-2-2h-1v-.5A1.5 1.5 0 0 0 10.5 2h-5ZM11 4H5v-.5a.5.5 0 0 1 .5-.5h5a.5.5 0 0 1 .5.5V4Zm-5.5 6h5.1a.5.5 0 0 1 .5.5v2a.5.5 0 0 1-.5.5H5.5a.5.5 0 0 1-.5-.5v-2a.5.5 0 0 1 .5-.5Z"/></svg>