<svg xmlns="http://www.w3.org/2000/svg" aria-hidden="true" role="img" width="16" height="16" fill="currentColor" class="fluent fluent-snooze-fill" viewBox="0 0 16 16"><path d="M4 7.5h2.5a.75.75 0 0 1 .666 1.097l-.055.089L5.458 11H6.5a.75.75 0 0 1 .102 1.493L6.5 12.5H4a.75.75 0 0 1-.665-1.097l.055-.089L5.043 9H4a.75.75 0 0 1-.1-1.493L4 7.5h2.5H4Zm5-5h3.5a.75.75 0 0 1 .682 1.063l-.049.09L10.367 8H12.5a.75.75 0 0 1 .102 1.493L12.5 9.5H9a.75.75 0 0 1-.682-1.063l.05-.09L11.134 4H9a.75.75 0 0 1-.1-1.493L9 2.5h3.5H9Z"/></svg>