<svg xmlns="http://www.w3.org/2000/svg" aria-hidden="true" role="img" width="12" height="12" fill="currentColor" class="fluent fluent-star-three-quarter" viewBox="0 0 12 12"><path d="M6.718 1.546L7.83 3.799l2.486.36a.8.8 0 0 1 .443 1.365L8.96 7.278l.425 2.476a.8.8 0 0 1-1.16.843L6 9.428l-2.224 1.169a.8.8 0 0 1-1.16-.843l.424-2.476l-1.799-1.754a.8.8 0 0 1 .444-1.364l2.486-.361l1.111-2.253a.8.8 0 0 1 1.435 0ZM7 8.823l1.331.7l-.374-2.18a.8.8 0 0 1 .23-.708l1.584-1.544l-2.189-.318a.8.8 0 0 1-.582-.4v4.45Z"/></svg>