<svg xmlns="http://www.w3.org/2000/svg" aria-hidden="true" role="img" width="20" height="20" fill="currentColor" class="fluent fluent-style-guide-fill" viewBox="0 0 20 20"><path d="M5.068 5.993A2.005 2.005 0 0 1 6.484 3.54l5.46-1.47a1.995 1.995 0 0 1 2.447 1.414l2.54 9.522a2.005 2.005 0 0 1-1.415 2.452l-5.46 1.47a1.995 1.995 0 0 1-2.447-1.413l-2.54-9.522ZM9 6.25a.75.75 0 1 0-1.5 0a.75.75 0 0 0 1.5 0ZM5 15V9.618l1.772 6.64c.072.272.186.52.334.742H7a2 2 0 0 1-2-2Zm-2.33-1.504L4 8.532V15c0 .338.056.662.159.965l-.075-.02a2 2 0 0 1-1.414-2.45Z"/></svg>