<svg xmlns="http://www.w3.org/2000/svg" viewBox="0 0 750 600" fill="none"><path d="M103.234 596.008l-.653-.243a80.405 80.405 0 01-47.373-48.233 77.975 77.975 0 01-4.054-19.141l-.053-.623.615.11c7.344 1.318 15.053 2.046 18.488 2.331l-19.27-12.748.034-.662a15.248 15.248 0 0110.248-13.675 15.517 15.517 0 0116.881 4.147c1.916 2.079 3.941 4.171 5.9 6.195 6.73 6.954 13.69 14.144 18.091 22.633a48.58 48.58 0 01.978 41.821l.168 18.088z" fill="#666" fill-opacity=".75"/><path d="M574.822 586.679l-.008-.069a204.664 204.664 0 00-10.312-55.559l-.005-.03a11.645 11.645 0 01.295-5.541 10.946 10.946 0 0112.203-7.413 23.493 23.493 0 0016.086-2.746 11.449 11.449 0 0110.13-.67 10.603 10.603 0 016.27 7.179c.065.256.123.514.172.776a163.2 163.2 0 0010.314 55.613l.004.023a11.656 11.656 0 01-2.984 10.178 10.833 10.833 0 01-8.677 3.187c-5.787-.394-11.738.779-18.194 3.589a10.518 10.518 0 01-7.164.503 11.573 11.573 0 01-8.13-9.02z" fill="#049ABE"/><path d="M290.977 574.243h173.998v-108.52l-173.998-.008v108.528zm67.904-103.527h37.149v19.278c-.049 10.255-8.404 18.529-18.662 18.481-10.19-.049-18.439-8.295-18.487-18.481v-19.278z" fill="#666" fill-opacity=".75"/><path d="M290.445 567.301v23.942a4.713 4.713 0 004.674 4.697h165.717a4.697 4.697 0 004.674-4.697v-23.942H290.445z" fill="#6B6B6B"/><path fill-rule="evenodd" clip-rule="evenodd" d="M17.254 455.133V21.763C17.282 9.748 27.028.016 39.049 0H711.07c12.022.015 21.767 9.746 21.795 21.764v433.369c-.009 12.029-9.762 21.779-21.795 21.788H39.05c-12.034-.009-21.787-9.759-21.796-21.788zM43.656 15.736h661.807c6.437.014 11.648 5.234 11.648 11.668v422.137c-.011 6.426-5.219 11.633-11.648 11.644H44.655c-6.429-.011-11.638-5.218-11.649-11.644V27.404c0-6.434 4.213-11.654 10.65-11.668z" fill="#6B6B6B"/><path d="M705.465 15.736H43.657c-6.436.014-10.649 5.234-10.65 11.669V449.54c.012 6.426 5.22 11.633 11.65 11.644h660.808c6.428-.011 11.637-5.218 11.648-11.644V27.404c-.001-6.434-5.212-11.654-11.648-11.668zM538.773 309.864a11.575 11.575 0 01-10.354 6.345l-.069-.005a203.006 203.006 0 00-19.075-1.745 11.485 11.485 0 012.583 2.554 10.831 10.831 0 011.552 9.11c-1.444 5.616-1.376 11.679.21 18.538a10.501 10.501 0 01-.812 7.133 11.573 11.573 0 01-10.355 6.345l-.069-.005a204.902 204.902 0 00-45.664-1.216c-.06.384-.136.768-.235 1.152-1.443 5.616-1.375 11.679.211 18.537a10.51 10.51 0 01-.812 7.134 11.577 11.577 0 01-10.355 6.345l-.069-.005a204.903 204.903 0 00-46.893-1.104c-.118 3.9.287 7.798 1.205 11.591a10.507 10.507 0 01-.812 7.133 11.575 11.575 0 01-10.355 6.345l-.069-.005a204.858 204.858 0 00-56.526 0h-.03a11.659 11.659 0 01-5.397-1.301 10.94 10.94 0 01-5.065-13.346 28.396 28.396 0 001.258-4.929 204.83 204.83 0 00-51.685.608h-.03a11.64 11.64 0 01-5.396-1.302 10.94 10.94 0 01-5.066-13.346 23.47 23.47 0 00.234-16.312 11.432 11.432 0 010-7.671 204.928 204.928 0 00-38.677 1.692h-.03a11.643 11.643 0 01-5.396-1.301 10.94 10.94 0 01-5.066-13.346 23.459 23.459 0 00.234-16.312 11.441 11.441 0 011.189-10.08 10.607 10.607 0 018.205-4.852c.264-.018.528-.027.795-.027a165.036 165.036 0 0019.843 2.241 10.978 10.978 0 01-4.3-12.9 23.47 23.47 0 00.234-16.312 11.438 11.438 0 011.189-10.08c.084-.129.182-.243.271-.367-4.735.326-9.459.817-14.172 1.473h-.03a11.656 11.656 0 01-5.396-1.302 10.94 10.94 0 01-5.066-13.346 23.459 23.459 0 00.234-16.312 11.439 11.439 0 011.189-10.079 10.61 10.61 0 018.205-4.853c.264-.017.528-.027.795-.027a164.657 164.657 0 0023.882 2.404 11.138 11.138 0 01-1.349-10.068 23.464 23.464 0 00.235-16.312 11.435 11.435 0 011.188-10.079 10.608 10.608 0 018.205-4.853c.264-.018.528-.027.795-.027a164.935 164.935 0 0020.193 2.26 11.158 11.158 0 01-.655-8.926 23.47 23.47 0 00.234-16.312 11.439 11.439 0 011.188-10.079 10.61 10.61 0 018.205-4.853c.264-.017.528-.027.795-.027a164.536 164.536 0 0023.78 2.4 11.17 11.17 0 01-.248-8.067 23.47 23.47 0 00.234-16.312 11.441 11.441 0 011.189-10.08 10.607 10.607 0 018.205-4.852c.263-.018.528-.027.795-.027a163.377 163.377 0 0056.579.007h.023c1.445.298 2.935.298 4.379 0h.024a163.37 163.37 0 0056.578-.007c.268 0 .532.009.795.027a10.607 10.607 0 018.205 4.852 11.438 11.438 0 011.189 10.08 23.47 23.47 0 00.234 16.312 11.164 11.164 0 01-.248 8.067 164.536 164.536 0 0023.78-2.4c.267 0 .532.01.795.027a10.61 10.61 0 018.205 4.853 11.439 11.439 0 011.189 10.079 23.47 23.47 0 00.234 16.312 11.158 11.158 0 01-.656 8.926 164.935 164.935 0 0020.193-2.26c.267 0 .532.009.795.027a10.608 10.608 0 018.205 4.853 11.435 11.435 0 011.189 10.079 23.47 23.47 0 00.234 16.312c1.2 3.386.692 7.143-1.363 10.089a11.497 11.497 0 012.342 2.372 10.833 10.833 0 011.552 9.111c-1.444 5.615-1.375 11.679.21 18.537a10.5 10.5 0 01-.812 7.133 11.736 11.736 0 01-1.461 2.201 164.53 164.53 0 0013.99-1.838h.023a11.666 11.666 0 019.467 4.79 10.824 10.824 0 011.552 9.11c-1.443 5.616-1.375 11.679.211 18.538a10.508 10.508 0 01-.813 7.133z" fill="#757575" fill-opacity=".3"/><path d="M683.639 76.02H65.323a2.459 2.459 0 010-4.915H683.64a2.46 2.46 0 010 4.916z" fill="#666" fill-opacity=".75"/><path d="M496.19 352.353l-.069-.005a204.858 204.858 0 00-56.526 0h-.03a11.66 11.66 0 01-5.397-1.302 10.94 10.94 0 01-5.065-13.346 23.47 23.47 0 00.234-16.312 11.435 11.435 0 011.189-10.079 10.61 10.61 0 018.205-4.853c.263-.018.527-.027.795-.027a163.37 163.37 0 0056.578.008h.024a11.668 11.668 0 019.467 4.789 10.83 10.83 0 011.551 9.111c-1.443 5.615-1.375 11.679.211 18.537a10.507 10.507 0 01-.812 7.133 11.576 11.576 0 01-10.355 6.346z" fill="#049ABE"/><path d="M550.861 255.467l-15.085-12.479c-11.313 5.927-28.527 29.592-28.527 29.592l-39.711 28.551a8.642 8.642 0 10.823 17.265 8.647 8.647 0 007.285-4.697l53.956-28.503 21.259-29.729z" fill="#FBBCBC"/><path d="M576.313 207.97c8.707 7.372 9.788 20.403 2.414 29.107a20.652 20.652 0 01-2.734 2.678l-9.593 7.796s-23.929 34.436-36.384 38.431l-31.977 16.7-14.418-14.451 28.98-23.61s13.329-12.603 14.664-21.829c.817-5.651 10.383-21.042 19.971-32.457 7.359-8.678 20.363-9.75 29.044-2.393l.033.028z" fill="#1D5868"/><path d="M545.311 581.703l-13.628-.001-6.484-52.553 20.115.001-.003 52.553z" fill="#FBBCBC"/><path d="M545.79 595.915l-41.911-.001v-.53c.001-9.006 7.304-16.307 16.313-16.307l7.656-5.806 14.284 5.807h3.658v16.837z" fill="#182E35"/><path d="M649.155 509.992l-6.455 11.999-49.372-19.176 9.526-17.711 46.301 24.888z" fill="#FBBCBC"/><path d="M661.905 516.299L642.058 553.2l-.467-.251c-7.935-4.265-10.909-14.152-6.643-22.085v-.001l-1.49-9.49 11.88-9.826 1.732-3.222 14.835 7.974zM519.545 341.042l-12.029 96.199 6.014 32.252 108.26 47.413 6.015-19.54c-27.673-16.928-57.255-42.546-75.894-44.43 0 0-1.546-17.072 11.807-27.607 2.694-2.126 2.105-5.002 3.194-7.608.75-1.793 3.73-3.66 4.493-5.499.99-2.384-.235-4.752.76-7.174.559-1.362 2.679-1.447 3.235-2.81.948-2.325.327-5.924 1.251-8.221 1.974-4.907 3.872-9.707 5.605-14.206 5.394-14.004 9.19-25.099 8.71-27.496-1.503-7.515-71.421-11.273-71.421-11.273z" fill="#182E35"/><path d="M517.473 436.963l-6.293 40.626 15.883 82.908h21.05c7.563-27.858 7.953-64.471.752-95.448l-31.392-28.086z" fill="#182E35"/><path d="M530.995 223.506l9.704-16.904 10.419-8.356 19.547-3.006 5.431 4.174a138.756 138.756 0 0120.351 101.19l-1.526 8.26-.968 5.243.419 6.268-3.262 9.123.449 6.681.24 3.569.24 3.581.336 4.999c.601 2.853-2.425 2.477-1.997 4.992.751 4.416 4.123 10.96-.999 10.981L536.45 353.32c-13.447.055-25.966-15.974-12.983-28.952l7.528-100.862z" fill="#1D5868"/><path d="M555.769 190.531c14.195 0 25.702-11.504 25.702-25.694s-11.507-25.694-25.702-25.694c-14.195 0-25.703 11.504-25.703 25.694s11.508 25.694 25.703 25.694z" fill="#FBBCBC"/><path d="M556.203 189.801c3.761.059 7.52-.204 11.236-.785 3.683-.749 11.923-6.785 14.22-10.417 1.707-2.699 2.798-6.914 3.413-9.974a29.506 29.506 0 00-5.164-23.431 9.327 9.327 0 00-3.767-3.214 4.494 4.494 0 00-.415-.14 11.52 11.52 0 01-5.725-3.541 9.471 9.471 0 00-.952-.98 14.172 14.172 0 00-5.914-2.968c-3.516-.941-8.604-.007-15.124 2.778-3.275 1.399-6.857.892-9.612.295a.9.9 0 00-.849.291 6.363 6.363 0 01-4.326 1.723c-.985.044-2.018 1.407-3.267 3.185-.284.403-.614.874-.853 1.161l-.032-.551-.557.614a7.72 7.72 0 003.487 12.579c.991.264 2.006.426 3.029.483.621.056 1.262.113 1.876.22a11.644 11.644 0 018.654 7.554 3.044 3.044 0 004.596 1.478 5.034 5.034 0 014.585-.835 3.345 3.345 0 011.476 1.674 4.353 4.353 0 001.652 1.927c2.496 1.286 2.668 6.985 1.771 11.736-.864 4.58-2.572 7.893-4.153 8.056-1.218.126-1.357.213-1.445.428l-.079.193.137.18a4.96 4.96 0 002.102.281z" fill="#182E35"/><path d="M469.21 170.715l-.07-.004a204.858 204.858 0 00-56.526 0h-.03a11.656 11.656 0 01-5.396-1.302 10.94 10.94 0 01-5.066-13.346 23.459 23.459 0 00.234-16.312 11.439 11.439 0 011.189-10.079 10.605 10.605 0 018.205-4.853c.264-.018.528-.027.795-.027a163.352 163.352 0 0056.579.007h.023a11.67 11.67 0 019.467 4.79 10.831 10.831 0 011.552 9.11c-1.444 5.616-1.375 11.68.21 18.538a10.501 10.501 0 01-.812 7.133 11.573 11.573 0 01-10.354 6.345z" fill="#049ABE"/><path d="M528.215 235.164l10.635-16.436c-7.211-10.538-32.733-24.863-32.733-24.863l-33.005-36.089a8.645 8.645 0 00-9.946-7.108 8.642 8.642 0 00-1.593 16.626l34.622 50.237 32.02 17.633z" fill="#FBBCBC"/><path d="M578.376 254.882c-6.305 9.506-19.126 12.101-28.635 5.798a20.786 20.786 0 01-2.98-2.401l-8.866-8.613s-37.165-19.4-42.59-31.299l-24.352-34.53 16.328-14.724 28.381 25.791s13.067 15.105 22.388 15.351c5.709.152 22.118 7.85 34.579 16.035 9.482 6.292 12.066 19.077 5.772 28.555l-.025.037z" fill="#1D5868"/><path d="M259.889 553.836l-.069-.005a204.858 204.858 0 00-56.526 0h-.03a11.64 11.64 0 01-5.396-1.302 10.94 10.94 0 01-5.066-13.346 23.47 23.47 0 00.234-16.312 11.436 11.436 0 011.189-10.079 10.61 10.61 0 018.205-4.853c.263-.017.527-.027.795-.027a163.377 163.377 0 0056.579.008h.023a11.669 11.669 0 019.467 4.79 10.827 10.827 0 011.551 9.11c-1.443 5.615-1.375 11.679.211 18.537.575 2.4.288 4.925-.812 7.133a11.576 11.576 0 01-10.355 6.346zM115.851 564.997l.042-.055a204.705 204.705 0 0031.673-46.804l.017-.025a11.65 11.65 0 014.102-3.738 10.946 10.946 0 0113.896 3.283 23.486 23.486 0 0013.385 9.334 11.444 11.444 0 017.685 6.632 10.602 10.602 0 01-1 10.186 163.25 163.25 0 00-31.708 46.843l-.013.02a11.669 11.669 0 01-9.274 5.154 10.83 10.83 0 01-8.417-3.82c-3.844-4.341-8.907-7.682-15.478-10.212a10.512 10.512 0 01-5.455-4.67 11.565 11.565 0 01.545-12.128z" fill="#049ABE"/><path d="M241.917 595.766l-.07-.005a204.858 204.858 0 00-56.526 0h-.03a11.655 11.655 0 01-5.396-1.301 10.94 10.94 0 01-5.066-13.346 23.462 23.462 0 00.234-16.313 11.439 11.439 0 011.189-10.079 10.61 10.61 0 018.205-4.853c.264-.017.528-.027.795-.027a163.352 163.352 0 0056.579.008h.023a11.667 11.667 0 019.467 4.79 10.83 10.83 0 011.552 9.11c-1.444 5.616-1.375 11.679.211 18.537a10.51 10.51 0 01-.813 7.134 11.577 11.577 0 01-10.354 6.345z" fill="#E6100F"/><path d="M748.817 599.544L1.183 600c-.657-.005-1.186-.801-1.183-1.778.003-.969.53-1.754 1.183-1.759l747.634-.456c.657.005 1.186.801 1.183 1.777-.003.97-.531 1.754-1.183 1.76z" fill="#757575" fill-opacity=".5"/><path d="M159.641 53.201c4.664 0 8.445-3.864 8.445-8.63 0-4.767-3.781-8.63-8.445-8.63-4.665 0-8.446 3.863-8.446 8.63 0 4.766 3.781 8.63 8.446 8.63zM188.816 53.201c4.665 0 8.446-3.864 8.446-8.63 0-4.767-3.781-8.63-8.446-8.63-4.664 0-8.445 3.863-8.445 8.63 0 4.766 3.781 8.63 8.445 8.63zM217.992 53.201c4.664 0 8.446-3.864 8.446-8.63 0-4.767-3.782-8.63-8.446-8.63s-8.445 3.863-8.445 8.63c0 4.766 3.781 8.63 8.445 8.63zM251.256 51.392c-.26 0-.519-.1-.714-.3l-5.699-5.823a1 1 0 010-1.396l5.699-5.823a1 1 0 011.428 1.396l-5.016 5.125 5.016 5.125a.998.998 0 01-.714 1.696zM260.835 51.392a.998.998 0 01-.714-1.696l5.015-5.125-5.015-5.125a.998.998 0 111.428-1.396l5.698 5.823a1 1 0 010 1.396l-5.698 5.823c-.196.2-.455.3-.714.3zM558.947 36.94h-10.596a2.186 2.186 0 00-2.187 2.186v10.602c0 1.208.979 2.186 2.187 2.186h10.596a2.195 2.195 0 002.197-2.186V39.126a2.195 2.195 0 00-2.197-2.187zM532.978 36.94h-10.596a2.186 2.186 0 00-2.187 2.186v10.602c0 1.208.979 2.186 2.187 2.186h10.596a2.194 2.194 0 002.197-2.186V39.126a2.194 2.194 0 00-2.197-2.187zM583.412 37.438h-10.596a2.186 2.186 0 00-2.187 2.187v10.602c0 1.208.979 2.187 2.187 2.187h10.596a2.195 2.195 0 002.197-2.187V39.625a2.195 2.195 0 00-2.197-2.187zM423.703 41.472h-84.697a2.665 2.665 0 100 5.33h84.697a2.672 2.672 0 002.667-2.665 2.672 2.672 0 00-2.667-2.665z" fill="#1D5868"/></svg>