<svg xmlns="http://www.w3.org/2000/svg" viewBox="0 0 517 154" fill="none"><path fill-rule="evenodd" clip-rule="evenodd" d="M460.706 85.355c-2.807.261-4.847 2.627-4.556 5.285l.263 2.407-5.082.473c-1.404.13-2.424 1.314-2.279 2.643l4.995 45.72c.146 1.329 1.401 2.301 2.804 2.17l55.903-5.205c1.403-.13 2.423-1.313 2.278-2.642l-4.995-45.72c-.145-1.33-1.4-2.301-2.804-2.17l-5.082.473-.263-2.407c-.29-2.658-2.801-4.6-5.608-4.34l-10.164.947c-2.807.261-4.846 2.628-4.556 5.286l.263 2.406-5.082.473-.263-2.406c-.29-2.658-2.801-4.6-5.608-4.34l-10.164.947zm25.803 16.349c-4.597.426-6.254 2.229-5.938 5.088.347 3.125 4.562 4.315 9.306 5.654 6.107 1.724 13.092 3.695 13.83 10.361.815 7.352-6.313 10.075-17.345 11.096l-8.274.765c-8.274.766-14.638-.089-15.611-8.871l4.392-.406c.837 7.556 4.143 8.282 11.038 7.644 4.596-.426 6.254-2.23 5.937-5.089-.346-3.125-4.561-4.314-9.305-5.653-6.108-1.724-13.092-3.695-13.831-10.361-.815-7.352 6.314-10.075 17.346-11.096l8.274-.766c7.125-.659 13.489.196 14.462 8.978l-4.393.406c-.837-7.556-4.142-8.282-9.888-7.75zM393.528 83c-2.928 0-5.302 2.239-5.302 5v2.5h-5.302c-1.464 0-2.651 1.12-2.651 2.5v47.5c0 1.381 1.187 2.5 2.651 2.5h58.321c1.464 0 2.651-1.119 2.651-2.5V93c0-1.38-1.187-2.5-2.651-2.5h-5.302V88c0-2.761-2.374-5-5.302-5h-10.604c-2.928 0-5.302 2.239-5.302 5v2.5h-5.301V88c0-2.761-2.374-5-5.302-5h-10.604zm41.249 21.75H422.37v30.75h-19.086v-30.75h-12.407v-4.25h43.9v4.25zM321.423 83c-2.929 0-5.302 2.239-5.302 5v2.5h-5.302c-1.464 0-2.651 1.12-2.651 2.5v47.5c0 1.381 1.187 2.5 2.651 2.5h58.32c1.464 0 2.651-1.119 2.651-2.5V93c0-1.38-1.187-2.5-2.651-2.5h-5.302V88c0-2.761-2.373-5-5.302-5h-10.603c-2.928 0-5.302 2.239-5.302 5v2.5h-5.302V88c0-2.761-2.374-5-5.302-5h-10.603zm-2.122 52.5v-35h19.803l16.197 28.438V100.5h5.089v35h-20.332L323.543 108v27.5h-4.242zM249.317 83c-2.928 0-5.302 2.239-5.302 5v2.5h-5.302c-1.464 0-2.651 1.12-2.651 2.5v47.5c0 1.381 1.187 2.5 2.651 2.5h58.321c1.464 0 2.651-1.119 2.651-2.5V93c0-1.38-1.187-2.5-2.651-2.5h-5.302V88c0-2.761-2.374-5-5.302-5h-10.604c-2.928 0-5.302 2.239-5.302 5v2.5h-5.301V88c0-2.761-2.374-5-5.302-5h-10.604zm39.021 52.5h-37.696v-35h36.741v4.25h-17.655V116h13.361v2.25h-13.361v13h18.61v4.25zM465.637 15c-2.928 0-5.301 2.239-5.301 5v2.5h-5.302c-1.464 0-2.651 1.12-2.651 2.5v47.5c0 1.38 1.187 2.5 2.651 2.5h58.32c1.464 0 2.651-1.12 2.651-2.5V25c0-1.38-1.187-2.5-2.651-2.5h-5.302V20c0-2.761-2.374-5-5.302-5h-10.603c-2.928 0-5.302 2.239-5.302 5v2.5h-5.302V20c0-2.761-2.374-5-5.302-5h-10.604zm41.62 52.5h-13.169V39.813L483.41 67.5h-5.34l-13.228-27.687V67.5h-3.976v-35h13.96l8.573 17.5 9.278-17.5h14.58v35zM393.528 15c-2.928 0-5.302 2.239-5.302 5v2.5h-5.302c-1.464 0-2.651 1.12-2.651 2.5v47.5c0 1.38 1.187 2.5 2.651 2.5h58.321c1.464 0 2.651-1.12 2.651-2.5V25c0-1.38-1.187-2.5-2.651-2.5h-5.302V20c0-2.761-2.374-5-5.302-5h-10.604c-2.928 0-5.302 2.239-5.302 5v2.5h-5.301V20c0-2.761-2.374-5-5.302-5h-10.604zm39.021 52.5h-37.697v-35h36.742v4.25h-17.655V48H427.3v2.25h-13.361v13h18.61v4.25zM321.423 15c-2.929 0-5.302 2.239-5.302 5v2.5h-5.302c-1.464 0-2.651 1.12-2.651 2.5v47.5c0 1.38 1.187 2.5 2.651 2.5h58.32c1.464 0 2.651-1.12 2.651-2.5V25c0-1.38-1.187-2.5-2.651-2.5h-5.302V20c0-2.761-2.373-5-5.302-5h-10.603c-2.928 0-5.302 2.239-5.302 5v2.5h-5.302V20c0-2.761-2.374-5-5.302-5h-10.603zm36.901 52.5h-35.31v-35H342.1v30.75h16.224v4.25zM253.408 12.12c-2.8-.276-5.319 1.65-5.627 4.302l-.278 2.401-5.07-.501c-1.4-.138-2.66.825-2.813 2.15l-5.291 45.622c-.154 1.326.856 2.513 2.256 2.651l55.768 5.51c1.4.139 2.66-.824 2.813-2.15l5.291-45.621c.154-1.326-.856-2.513-2.256-2.652l-5.07-.5.279-2.402c.307-2.652-1.713-5.026-4.513-5.303l-10.14-1.002c-2.8-.276-5.319 1.65-5.627 4.302l-.278 2.4-5.07-.5.279-2.401c.307-2.653-1.713-5.027-4.513-5.303l-10.14-1.002zm31.153 53.905l-36.068-3.562 3.903-33.595 35.154 3.472-.474 4.08-16.892-1.669-1.255 10.798 12.784 1.263-.251 2.16-12.783-1.263-1.45 12.478 17.805 1.758-.473 4.08z" fill="#049ABE"/><path d="M138.32 50.574c.146-4.278 2.02-5.986 8.226-5.986h34.18V32.633h-32.032c-15.142 0-23.66 6.4-23.66 18.516 0 23.64 43.698 18.804 43.698 31.334 0 4.278-2.311 6.561-8.226 6.561h-44.699c4.513-5.447 7.28-12.475 7.28-20.511 0-20.224-13.268-37.302-35.745-37.302-20.33 0-34.89 15.1-34.89 37.59v5.59H37.055c-11.957 0-23.787-7.694-23.787-22.219 0-14.525 11.83-22.22 23.787-22.22h9.81V18H34.762C18.6 18 0 30.242 0 52.174s18.6 34.174 34.744 34.174h17.708V136h12.686V86.348h24.151V74.393H65.138v-3.307c0-18.804 10.1-27.918 22.204-27.918 13.559 0 23.059 9.815 23.059 23.783 0 11.99-6.57 19.775-16.98 22.076H77.24v11.954h83.283c12.249 0 21.476-6.13 21.476-19.073 0-24.503-43.844-19.505-43.68-31.334z" fill="#E6100F"/><path d="M86.79 119.365c-.679.298-2.056.577-3.819.577-4.076 0-7.143-2.184-7.143-6.22 0-3.845 3.067-6.466 7.547-6.466 1.8 0 2.938.332 3.434.542l-.44 1.293c-.717-.297-1.727-.507-2.92-.507-3.38 0-5.638 1.835-5.638 5.068 0 3.005 2.039 4.945 5.546 4.945 1.138 0 2.295-.193 3.048-.507l.386 1.275zm3.086-3.704c.036 2.167 1.67 3.058 3.562 3.058 1.359 0 2.167-.21 2.865-.454l.33 1.135c-.66.263-1.8.542-3.452.542-3.195 0-5.105-1.782-5.105-4.456 0-2.656 1.836-4.752 4.866-4.752 3.38 0 4.279 2.533 4.279 4.158a3.6 3.6 0 01-.074.752h-7.271v.017zm5.527-1.153c.018-1.014-.496-2.604-2.608-2.604-1.91 0-2.736 1.486-2.9 2.604h5.508zm4.15-1.171c0-.908-.018-1.66-.092-2.394h1.671l.11 1.451h.037c.514-.839 1.708-1.66 3.434-1.66 1.432 0 3.672.734 3.672 3.756v5.277h-1.873v-5.084c0-1.416-.624-2.604-2.405-2.604-1.249 0-2.204.751-2.534 1.643a2.209 2.209 0 00-.129.751v5.312h-1.891v-6.448zm14.103-4.927v2.533h2.699v1.223h-2.699v4.771c0 1.083.367 1.712 1.414 1.712.495 0 .863-.052 1.101-.105l.092 1.206c-.367.122-.936.227-1.671.227-.881 0-1.579-.245-2.038-.681-.533-.472-.735-1.258-.735-2.289v-4.823h-1.616v-1.223h1.616v-2.114l1.837-.437zm4.811 5.294c0-1.048-.019-1.922-.092-2.761h1.653l.055 1.73h.091a3.065 3.065 0 012.865-1.939c.22 0 .367.017.533.052v1.503a3.38 3.38 0 00-.643-.053c-1.322 0-2.277.857-2.534 2.062-.037.227-.092.472-.092.752v4.7h-1.873v-6.046h.037zm16.196 1.59c0 3.268-2.663 4.683-5.16 4.683-2.81 0-4.977-1.747-4.977-4.543 0-2.953 2.277-4.683 5.142-4.683 2.975 0 4.995 1.835 4.995 4.543m-8.227.088c0 1.939 1.304 3.389 3.14 3.389 1.8 0 3.159-1.432 3.159-3.424 0-1.503-.882-3.39-3.104-3.39-2.24 0-3.195 1.747-3.195 3.425m-49.745 8.264c.9-.122 2.075-.244 3.58-.244 1.837 0 3.196.367 4.06 1.031.789.576 1.266 1.485 1.266 2.568 0 1.119-.385 1.992-1.12 2.621-.992.891-2.59 1.346-4.407 1.346-.55 0-1.083-.018-1.506-.105v4.927h-1.873v-12.144zm1.855 5.924c.404.087.918.122 1.542.122 2.259 0 3.618-.926 3.618-2.621 0-1.625-1.36-2.411-3.416-2.411-.808 0-1.432.052-1.763.122v4.788h.019zm14.672 6.22l-.147-1.118h-.055c-.57.699-1.69 1.311-3.177 1.311-2.093 0-3.177-1.258-3.177-2.534 0-2.132 2.222-3.302 6.244-3.285v-.175c0-.734-.24-2.044-2.35-2.044-.974 0-1.966.262-2.7.646l-.44-1.065c.862-.472 2.11-.787 3.396-.787 3.177 0 3.948 1.835 3.948 3.617v3.303c0 .768.037 1.52.165 2.114h-1.707v.017zm-.276-4.508c-2.056-.035-4.388.28-4.388 1.992 0 1.031.808 1.538 1.78 1.538 1.36 0 2.204-.734 2.516-1.468.074-.175.11-.349.11-.507v-1.555h-.018zm13.552 2.097c0 .909.018 1.712.074 2.411h-1.671l-.111-1.432h-.036c-.496.716-1.58 1.642-3.434 1.642-1.635 0-3.581-.769-3.581-3.862v-5.154h1.891v4.892c0 1.678.606 2.814 2.314 2.814 1.267 0 2.149-.752 2.479-1.451.11-.244.165-.524.165-.821v-5.417h1.892v6.378h.018zm3.122-10.536h1.891v12.947h-1.891v-12.947zm10.816 12.947l-.147-1.118h-.074c-.569.699-1.689 1.311-3.177 1.311-2.093 0-3.176-1.258-3.176-2.534 0-2.132 2.222-3.302 6.243-3.285v-.175c0-.734-.239-2.044-2.35-2.044a6.06 6.06 0 00-2.7.646l-.422-1.065c.863-.472 2.093-.787 3.415-.787 3.177 0 3.948 1.835 3.948 3.617v3.303c0 .768.037 1.52.166 2.114h-1.726v.017zm-.276-4.508c-2.057-.035-4.407.28-4.407 1.992 0 1.031.808 1.538 1.781 1.538 1.359 0 2.204-.734 2.516-1.468.055-.175.11-.349.11-.507v-1.555zm9.218 2.569c.827.437 2.057.804 3.342.804 1.91 0 3.03-.857 3.03-2.097 0-1.153-.771-1.8-2.718-2.446-2.368-.717-3.819-1.748-3.819-3.478 0-1.922 1.855-3.337 4.664-3.337 1.469 0 2.553.297 3.195.594l-.514 1.293a6.74 6.74 0 00-2.754-.577c-1.965 0-2.718.996-2.718 1.835 0 1.153.881 1.713 2.883 2.377 2.442.803 3.691 1.799 3.691 3.617 0 1.904-1.653 3.529-5.068 3.529-1.396 0-2.92-.349-3.691-.786l.477-1.328zm20.273-2.551c0 3.267-2.663 4.683-5.16 4.683-2.81 0-4.976-1.748-4.976-4.543 0-2.953 2.277-4.683 5.141-4.683 2.975 0 4.995 1.852 4.995 4.543zm-8.227.087c0 1.94 1.304 3.39 3.159 3.39 1.799 0 3.158-1.45 3.158-3.425 0-1.485-.881-3.39-3.103-3.39-2.259 0-3.214 1.748-3.214 3.425m19.281 1.992c0 .909.019 1.712.092 2.411h-1.671l-.11-1.432h-.037c-.496.716-1.579 1.642-3.434 1.642-1.634 0-3.58-.769-3.58-3.862v-5.154h1.891v4.892c0 1.678.606 2.814 2.314 2.814 1.267 0 2.148-.752 2.479-1.451.11-.244.165-.524.165-.821v-5.417h1.891v6.378zm1.965 1.485l4.701-5.207c.441-.472.881-.891 1.341-1.363v-.035h-5.62v-1.293h7.915l-.018 1.014-4.628 5.119c-.422.49-.845.927-1.322 1.381v.035h6.06v1.275h-8.429v-.926zm16.086.926l-.147-1.118h-.073c-.57.699-1.69 1.311-3.177 1.311-2.112 0-3.177-1.258-3.177-2.534 0-2.132 2.222-3.302 6.243-3.285v-.175c0-.734-.238-2.044-2.35-2.044-.973 0-1.965.262-2.699.646l-.423-1.065c.863-.472 2.094-.787 3.416-.787 3.177 0 3.948 1.835 3.948 3.617v3.303c0 .768.037 1.52.165 2.114h-1.726v.017zm-.275-4.508c-2.057-.035-4.389.28-4.389 1.992 0 1.031.808 1.538 1.781 1.538 1.359 0 2.204-.734 2.516-1.468.073-.175.11-.349.11-.507v-1.555h-.018z" fill="#757575"/></svg>