<svg xmlns="http://www.w3.org/2000/svg" xmlns:xlink="http://www.w3.org/1999/xlink" viewBox="0 0 277 256" fill="none"><style><![CDATA[.B{stroke-width:2}.C{fill:#000}.D{stroke-linecap:round}.E{fill:#049abe}.F{fill-opacity:.48}.G{stroke:#049abe}.H{stroke-linejoin:round}.I{stroke:#fff}.J{fill-opacity:.4}.K{stroke-opacity:.64}.L{stroke-opacity:.4}]]></style><mask id="A" maskUnits="userSpaceOnUse" x="0" y="0" width="277" height="256" mask-type="alpha"><path d="M0 174.852a2 2 0 00.997 1.73l136.007 78.845c.62.359 1.386.359 2.006 0l136.007-78.845a2 2 0 00.997-1.73V81.156a2 2 0 00-.997-1.73L139.01.581a2 2 0 00-2.006 0L.997 79.426A2 2 0 000 81.156v93.696z" class="C"/></mask><g mask="url(#A)"><path fill-rule="evenodd" d="M137.999-.008L-.008 79.996v96L138 256l138.007-80.004v-96L137.999-.008z" class="E"/><path style="mix-blend-mode:overlay" d="M138 160l138.007-80.004v96L138 256z" class="C F"/><path fill-opacity=".24" style="mix-blend-mode:overlay" d="M138 160L-.007 79.996v96L138 256z" class="C"/><g filter="url(#J)"><path fill="#fff" fill-opacity=".24" style="mix-blend-mode:overlay" d="M138 160L-.007 79.996 138-.008l138.007 80.004z"/></g><path style="mix-blend-mode:overlay" d="M276 176l-138 80m0 0L0 176m276-96v96M0 80v96" stroke="#000" stroke-width="4" class="D L"/><path d="M138 160v96M276 80l-138 80m0 0L0 80" stroke-width="3" class="D G H"/><path d="M138 160v96M276 80l-138 80m0 0L0 80" stroke-width="3" style="mix-blend-mode:overlay" class="D I L"/></g><mask id="B" maskUnits="userSpaceOnUse" x="109" y="7" width="59" height="50" mask-type="alpha"><path d="M165.323 46.465c1.481-2.075 2.221-4.285 2.221-6.496v-16c0-2.21-.74-4.42-2.221-6.495-1.428-2.002-3.546-3.877-6.352-5.504s-6.042-2.854-9.494-3.682C145.898 7.429 142.085 7 138.272 7s-7.626.43-11.205 1.288c-3.452.828-6.687 2.055-9.493 3.682s-4.924 3.502-6.353 5.504C109.74 19.548 109 21.759 109 23.969v16c0 2.21.74 4.421 2.221 6.496 1.429 2.001 3.546 3.877 6.353 5.503s6.041 2.855 9.493 3.683c3.579.858 7.392 1.288 11.205 1.288s7.626-.43 11.205-1.288c3.452-.828 6.687-2.056 9.494-3.683s4.924-3.502 6.352-5.503z" class="C"/></mask><g mask="url(#B)"><path d="M165.323 46.465c1.481-2.075 2.221-4.285 2.221-6.496v-16c0-2.21-.74-4.42-2.221-6.495-1.428-2.002-3.546-3.877-6.352-5.504s-6.042-2.854-9.494-3.682C145.898 7.429 142.085 7 138.272 7s-7.626.43-11.205 1.288c-3.452.828-6.687 2.055-9.493 3.682s-4.924 3.502-6.353 5.504C109.74 19.548 109 21.759 109 23.969v16c0 2.21.74 4.421 2.221 6.496 1.429 2.001 3.546 3.877 6.353 5.503s6.041 2.855 9.493 3.683c3.579.858 7.392 1.288 11.205 1.288s7.626-.43 11.205-1.288c3.452-.828 6.687-2.056 9.494-3.683s4.924-3.502 6.352-5.503z" class="E"/><path d="M165.323 46.496c1.481-2.075 2.221-4.286 2.221-6.496V24c0 2.21-.74 4.42-2.221 6.496-1.428 2.001-3.546 3.876-6.352 5.503s-6.042 2.855-9.494 3.683c-3.579.858-7.392 1.287-11.205 1.287s-7.626-.429-11.205-1.287c-3.452-.828-6.687-2.056-9.493-3.683s-4.924-3.502-6.353-5.503C109.74 28.42 109 26.21 109 24v16c0 2.21.74 4.42 2.221 6.496 1.429 2.001 3.546 3.876 6.353 5.503s6.041 2.855 9.493 3.683c3.579.858 7.392 1.287 11.205 1.287s7.626-.429 11.205-1.287c3.452-.828 6.687-2.056 9.494-3.683s4.924-3.502 6.352-5.503z" fill="url(#F)" style="mix-blend-mode:overlay" class="F"/><path d="M111.221 17.474C109.74 19.548 109 21.759 109 23.969s.74 4.421 2.221 6.496c1.429 2.001 3.546 3.877 6.353 5.503s6.041 2.855 9.493 3.683c3.579.858 7.392 1.288 11.205 1.288s7.626-.43 11.205-1.288c3.452-.828 6.687-2.056 9.494-3.683s4.924-3.502 6.352-5.503c1.481-2.075 2.221-4.285 2.221-6.496s-.74-4.42-2.221-6.495c-1.428-2.002-3.546-3.877-6.352-5.504s-6.042-2.854-9.494-3.682C145.898 7.429 142.085 7 138.272 7s-7.626.43-11.205 1.288c-3.452.828-6.687 2.055-9.493 3.682s-4.924 3.502-6.353 5.504z" fill="#fff" style="mix-blend-mode:overlay" class="J"/><use xlink:href="#K" class="B D G H"/><use xlink:href="#K" style="mix-blend-mode:overlay" class="B I K"/></g><mask id="C" maskUnits="userSpaceOnUse" x="40" y="47" width="59" height="50" mask-type="alpha"><path d="M96.323 86.465c1.48-2.075 2.221-4.285 2.221-6.496v-16c0-2.21-.74-4.42-2.221-6.495-1.428-2.002-3.546-3.877-6.352-5.504s-6.042-2.854-9.494-3.682C76.898 47.429 73.085 47 69.272 47s-7.626.43-11.205 1.288c-3.452.828-6.687 2.055-9.493 3.682s-4.924 3.502-6.353 5.504C40.741 59.548 40 61.759 40 63.969v16c0 2.21.74 4.421 2.221 6.496 1.429 2.001 3.546 3.876 6.353 5.503s6.04 2.855 9.493 3.683c3.58.858 7.392 1.288 11.205 1.288s7.626-.43 11.205-1.288c3.452-.828 6.687-2.056 9.493-3.683s4.924-3.502 6.353-5.503z" class="C"/></mask><g mask="url(#C)"><path d="M96.323 86.465c1.48-2.075 2.221-4.285 2.221-6.496v-16c0-2.21-.74-4.42-2.221-6.495-1.428-2.002-3.546-3.877-6.352-5.504s-6.042-2.854-9.494-3.682C76.898 47.429 73.085 47 69.272 47s-7.626.43-11.205 1.288c-3.452.828-6.687 2.055-9.493 3.682s-4.924 3.502-6.353 5.504C40.741 59.548 40 61.759 40 63.969v16c0 2.21.74 4.421 2.221 6.496 1.429 2.001 3.546 3.876 6.353 5.503s6.04 2.855 9.493 3.683c3.58.858 7.392 1.288 11.205 1.288s7.626-.43 11.205-1.288c3.452-.828 6.687-2.056 9.493-3.683s4.924-3.502 6.353-5.503z" class="E"/><path d="M96.323 86.496c1.48-2.075 2.221-4.286 2.221-6.496V64c0 2.21-.74 4.42-2.221 6.496-1.428 2.001-3.546 3.876-6.352 5.503s-6.042 2.855-9.494 3.683c-3.579.858-7.392 1.287-11.205 1.287s-7.626-.429-11.205-1.287c-3.452-.828-6.687-2.056-9.493-3.683s-4.924-3.502-6.353-5.503C40.741 68.42 40 66.21 40 64v16c0 2.21.74 4.42 2.221 6.496 1.429 2.001 3.546 3.876 6.353 5.503s6.04 2.855 9.493 3.683c3.58.858 7.392 1.287 11.205 1.287s7.626-.429 11.205-1.287c3.452-.828 6.687-2.056 9.493-3.683s4.924-3.502 6.353-5.503z" fill="url(#G)" style="mix-blend-mode:overlay" class="F"/><path d="M42.221 57.474C40.741 59.548 40 61.759 40 63.969s.74 4.421 2.221 6.496c1.429 2.001 3.546 3.876 6.353 5.503s6.04 2.855 9.493 3.683c3.58.858 7.392 1.288 11.205 1.288s7.626-.43 11.205-1.288c3.452-.828 6.687-2.056 9.493-3.683s4.924-3.502 6.353-5.503c1.48-2.075 2.221-4.285 2.221-6.496s-.74-4.42-2.221-6.495c-1.428-2.002-3.546-3.877-6.352-5.504s-6.042-2.854-9.494-3.682C76.898 47.429 73.085 47 69.272 47s-7.626.43-11.205 1.288c-3.452.828-6.687 2.055-9.493 3.682s-4.924 3.502-6.353 5.504z" fill="#fff" style="mix-blend-mode:overlay" class="J"/><use xlink:href="#L" class="B D G H"/><use xlink:href="#L" style="mix-blend-mode:overlay" class="B I K"/></g><mask id="D" maskUnits="userSpaceOnUse" x="178" y="47" width="59" height="50" mask-type="alpha"><path d="M234.323 86.465c1.481-2.075 2.221-4.285 2.221-6.496v-16c0-2.21-.74-4.42-2.221-6.495-1.428-2.002-3.546-3.877-6.352-5.504s-6.042-2.854-9.494-3.682c-3.579-.859-7.392-1.288-11.205-1.288s-7.626.43-11.205 1.288c-3.452.828-6.687 2.055-9.493 3.682s-4.924 3.502-6.353 5.504C178.74 59.548 178 61.759 178 63.969v16c0 2.21.74 4.421 2.221 6.496 1.429 2.001 3.546 3.876 6.353 5.503s6.041 2.855 9.493 3.683c3.579.858 7.392 1.288 11.205 1.288s7.626-.43 11.205-1.288c3.452-.828 6.687-2.056 9.494-3.683s4.924-3.502 6.352-5.503z" class="C"/></mask><g mask="url(#D)"><path d="M234.323 86.465c1.481-2.075 2.221-4.285 2.221-6.496v-16c0-2.21-.74-4.42-2.221-6.495-1.428-2.002-3.546-3.877-6.352-5.504s-6.042-2.854-9.494-3.682c-3.579-.859-7.392-1.288-11.205-1.288s-7.626.43-11.205 1.288c-3.452.828-6.687 2.055-9.493 3.682s-4.924 3.502-6.353 5.504C178.74 59.548 178 61.759 178 63.969v16c0 2.21.74 4.421 2.221 6.496 1.429 2.001 3.546 3.876 6.353 5.503s6.041 2.855 9.493 3.683c3.579.858 7.392 1.288 11.205 1.288s7.626-.43 11.205-1.288c3.452-.828 6.687-2.056 9.494-3.683s4.924-3.502 6.352-5.503z" class="E"/><path d="M234.323 86.496c1.481-2.075 2.221-4.286 2.221-6.496V64c0 2.21-.74 4.42-2.221 6.496-1.428 2.001-3.546 3.876-6.352 5.503s-6.042 2.855-9.494 3.683c-3.579.858-7.392 1.287-11.205 1.287s-7.626-.429-11.205-1.287c-3.452-.828-6.687-2.056-9.493-3.683s-4.924-3.502-6.353-5.503C178.74 68.42 178 66.21 178 64v16c0 2.21.74 4.42 2.221 6.496 1.429 2.001 3.546 3.876 6.353 5.503s6.041 2.855 9.493 3.683c3.579.858 7.392 1.287 11.205 1.287s7.626-.429 11.205-1.287c3.452-.828 6.687-2.056 9.494-3.683s4.924-3.502 6.352-5.503z" fill="url(#H)" style="mix-blend-mode:overlay" class="F"/><path d="M180.221 57.474C178.74 59.548 178 61.759 178 63.969s.74 4.421 2.221 6.496c1.429 2.001 3.546 3.876 6.353 5.503s6.041 2.855 9.493 3.683c3.579.858 7.392 1.288 11.205 1.288s7.626-.43 11.205-1.288c3.452-.828 6.687-2.056 9.494-3.683s4.924-3.502 6.352-5.503c1.481-2.075 2.221-4.285 2.221-6.496s-.74-4.42-2.221-6.495c-1.428-2.002-3.546-3.877-6.352-5.504s-6.042-2.854-9.494-3.682c-3.579-.859-7.392-1.288-11.205-1.288s-7.626.43-11.205 1.288c-3.452.828-6.687 2.055-9.493 3.682s-4.924 3.502-6.353 5.504z" fill="#fff" style="mix-blend-mode:overlay" class="J"/><use xlink:href="#M" class="B D G H"/><use xlink:href="#M" style="mix-blend-mode:overlay" class="B I K"/></g><mask id="E" maskUnits="userSpaceOnUse" x="109" y="87" width="59" height="50" mask-type="alpha"><path d="M165.323 126.465c1.481-2.075 2.221-4.285 2.221-6.496v-16c0-2.21-.74-4.42-2.221-6.495-1.428-2.002-3.546-3.877-6.352-5.504s-6.042-2.854-9.494-3.682c-3.579-.859-7.392-1.288-11.205-1.288s-7.626.43-11.205 1.288c-3.452.828-6.687 2.055-9.493 3.682s-4.924 3.502-6.353 5.504c-1.481 2.074-2.221 4.285-2.221 6.495v16c0 2.211.74 4.421 2.221 6.496 1.429 2.001 3.546 3.876 6.353 5.503s6.041 2.855 9.493 3.683c3.579.858 7.392 1.288 11.205 1.288s7.626-.43 11.205-1.288c3.452-.828 6.687-2.056 9.494-3.683s4.924-3.502 6.352-5.503z" class="C"/></mask><g mask="url(#E)"><path d="M165.323 126.465c1.481-2.075 2.221-4.285 2.221-6.496v-16c0-2.21-.74-4.42-2.221-6.495-1.428-2.002-3.546-3.877-6.352-5.504s-6.042-2.854-9.494-3.682c-3.579-.859-7.392-1.288-11.205-1.288s-7.626.43-11.205 1.288c-3.452.828-6.687 2.055-9.493 3.682s-4.924 3.502-6.353 5.504c-1.481 2.074-2.221 4.285-2.221 6.495v16c0 2.211.74 4.421 2.221 6.496 1.429 2.001 3.546 3.876 6.353 5.503s6.041 2.855 9.493 3.683c3.579.858 7.392 1.288 11.205 1.288s7.626-.43 11.205-1.288c3.452-.828 6.687-2.056 9.494-3.683s4.924-3.502 6.352-5.503z" class="E"/><path d="M165.323 126.496c1.481-2.075 2.221-4.286 2.221-6.496v-16c0 2.21-.74 4.421-2.221 6.496-1.428 2.001-3.546 3.876-6.352 5.503s-6.042 2.855-9.494 3.683c-3.579.858-7.392 1.287-11.205 1.287s-7.626-.429-11.205-1.287c-3.452-.828-6.687-2.056-9.493-3.683s-4.924-3.502-6.353-5.503C109.74 108.421 109 106.21 109 104v16c0 2.21.74 4.421 2.221 6.496 1.429 2.001 3.546 3.876 6.353 5.503s6.041 2.855 9.493 3.683c3.579.858 7.392 1.287 11.205 1.287s7.626-.429 11.205-1.287c3.452-.828 6.687-2.056 9.494-3.683s4.924-3.502 6.352-5.503z" fill="url(#I)" style="mix-blend-mode:overlay" class="F"/><path d="M111.221 97.474c-1.481 2.074-2.221 4.285-2.221 6.495s.74 4.421 2.221 6.496c1.429 2.001 3.546 3.876 6.353 5.503s6.041 2.855 9.493 3.683c3.579.858 7.392 1.288 11.205 1.288s7.626-.43 11.205-1.288c3.452-.828 6.687-2.056 9.494-3.683s4.924-3.502 6.352-5.503c1.481-2.075 2.221-4.285 2.221-6.496s-.74-4.42-2.221-6.495c-1.428-2.002-3.546-3.877-6.352-5.504s-6.042-2.854-9.494-3.682c-3.579-.859-7.392-1.288-11.205-1.288s-7.626.43-11.205 1.288c-3.452.828-6.687 2.055-9.493 3.682s-4.924 3.502-6.353 5.504z" fill="#fff" style="mix-blend-mode:overlay" class="J"/><use xlink:href="#M" x="-69" y="40" class="B D G H"/><use xlink:href="#M" x="-69" y="40" style="mix-blend-mode:overlay" class="B I K"/></g><defs><linearGradient id="F" x1="109" y1="24" x2="167.544" y2="24" gradientUnits="userSpaceOnUse"><stop stop-opacity=".5"/><stop offset=".516" stop-opacity="0"/><stop offset="1"/></linearGradient><linearGradient id="G" x1="40" y1="64" x2="98.544" y2="64" gradientUnits="userSpaceOnUse"><stop stop-opacity=".5"/><stop offset=".516" stop-opacity="0"/><stop offset="1"/></linearGradient><linearGradient id="H" x1="178" y1="64" x2="236.544" y2="64" gradientUnits="userSpaceOnUse"><stop stop-opacity=".5"/><stop offset=".516" stop-opacity="0"/><stop offset="1"/></linearGradient><linearGradient id="I" x1="109" y1="104" x2="167.544" y2="104" gradientUnits="userSpaceOnUse"><stop stop-opacity=".5"/><stop offset=".516" stop-opacity="0"/><stop offset="1"/></linearGradient><filter id="J" x="-.008" y="-.008" width="276.016" height="160.008" filterUnits="userSpaceOnUse" color-interpolation-filters="sRGB"><feFlood flood-opacity="0"/><feBlend in="SourceGraphic" result="B"/><feColorMatrix in="SourceAlpha" values="0 0 0 0 0 0 0 0 0 0 0 0 0 0 0 0 0 0 127 0" result="C"/><feOffset dy="2"/><feComposite in2="C" operator="arithmetic" k2="-1" k3="1"/><feColorMatrix values="0 0 0 0 1 0 0 0 0 1 0 0 0 0 1 0 0 0 0.17 0"/><feBlend mode="overlay" in2="B"/></filter><path id="K" d="M110.592 17c-1.48 2.075-1.592 5.196-1.592 7.406s.74 4.421 2.221 6.496c1.429 2.001 3.546 3.876 6.353 5.503s6.041 2.855 9.493 3.683c3.579.858 7.392 1.288 11.205 1.288s7.626-.43 11.205-1.288c3.452-.828 6.687-2.056 9.494-3.683s4.924-3.502 6.352-5.503c1.481-2.075 2.221-4.285 2.221-6.496s-.104-5.237-1.584-7.312"/><path id="L" d="M41.592 57C40.112 59.075 40 62.196 40 64.406s.74 4.421 2.221 6.496c1.429 2.001 3.546 3.876 6.353 5.503s6.04 2.855 9.493 3.683c3.58.858 7.392 1.288 11.205 1.288s7.626-.43 11.205-1.288c3.452-.828 6.687-2.056 9.493-3.683s4.924-3.502 6.353-5.503c1.48-2.075 2.221-4.285 2.221-6.496s-.104-5.238-1.584-7.312"/><path id="M" d="M179.592 57c-1.48 2.075-1.592 5.196-1.592 7.406s.74 4.421 2.221 6.496c1.429 2.001 3.546 3.876 6.353 5.503s6.041 2.855 9.493 3.683c3.579.858 7.392 1.288 11.205 1.288s7.626-.43 11.205-1.288c3.452-.828 6.687-2.056 9.494-3.683s4.924-3.502 6.352-5.503c1.481-2.075 2.221-4.285 2.221-6.496s-.104-5.238-1.584-7.312"/></defs></svg>