<svg xmlns="http://www.w3.org/2000/svg" viewBox="0 0 750 600" fill="none"><path d="M435.757 86.613c-48.081-1.701-93.874-17.576-137.602-34.94-43.728-17.364-87.039-36.596-133.969-45.794-30.184-5.917-64.707-6.76-89.023 9.768-23.409 15.95-30.972 43.409-35.035 68.907-3.061 19.187-4.859 39.384 3.521 57.348 5.824 12.472 16.15 22.954 23.298 34.902 24.865 41.563 7.288 92.818-19.65 133.402-12.63 19.034-27.302 37.218-37.057 57.461-9.754 20.242-14.264 43.515-5.727 64.221 8.454 20.508 28.609 35.882 50.443 46.706 44.344 21.989 96.578 28.278 147.549 31.848 112.796 7.884 226.187 4.474 339.28 1.048 41.855-1.26 83.889-2.544 125.061-9.16 22.867-3.676 46.469-9.51 63.073-23.592 21.069-17.873 26.292-48.134 12.169-70.541-23.684-37.598-89.149-46.933-105.723-87.274-9.108-22.209.245-46.941 13.491-67.533 28.409-44.183 76.022-82.944 78.526-133.44 1.723-34.681-21.166-69.416-56.558-85.83-37.094-17.205-88.54-15.04-115.894 13.436-28.194 29.289-77.716 40.568-120.173 39.057zM519.275 549.529c11.049 0 20.006-1.547 20.006-3.456 0-1.908-8.957-3.456-20.006-3.456-11.05 0-20.007 1.548-20.007 3.456 0 1.909 8.957 3.456 20.007 3.456zM446.343 574c11.05 0 20.007-1.547 20.007-3.456s-8.957-3.456-20.007-3.456c-11.049 0-20.006 1.547-20.006 3.456S435.294 574 446.343 574zM69.198 575.119c11.049 0 20.006-1.547 20.006-3.456s-8.957-3.456-20.006-3.456c-11.05 0-20.007 1.547-20.007 3.456s8.957 3.456 20.007 3.456zM598.09 580.544c11.049 0 20.007-1.547 20.007-3.456s-8.958-3.456-20.007-3.456c-11.049 0-20.007 1.547-20.007 3.456s8.958 3.456 20.007 3.456z" fill="#757575" fill-opacity=".2"/><path d="M748.817 599.544L1.183 600c-.657-.005-1.186-.801-1.183-1.778.003-.969.53-1.754 1.183-1.759l747.634-.456c.657.005 1.186.801 1.183 1.777-.003.97-.531 1.754-1.183 1.76z" fill="#757575" fill-opacity=".5"/><path d="M251.127 596.444c-7.062 3.297-23.045 0-23.045 0l-6.728-.402c-8.712-.57-23.386-1.519-28.568-1.968-7.56-.638-5.701-3.797-5.701-3.797v-19.149l36.671-9.494s14.495 5.066 18.465 9.494c3.769 4.216 5.947.972 12.704 2.188.335.06.684.136 1.049.22 6.385 1.519 9.849 2.089 11.894 7.497.413 1.135.744 2.3.988 3.486 1.844 8.705-10.667 8.636-17.729 11.925z" fill="#6B6B6B"/><path d="M249.266 318.194v35.449l-6.193 27.595s-1.985 66.591-.252 74.688c1.732 8.096-5.947 15.7-5.947 15.7s-4.461.509-4.461 4.048c0 3.54-7.434 13.672-7.434 13.672l.246 19.749s3.226 36.968-1.732 44.054c-4.959 7.087 1.732 8.105 1.732 8.105-6.193 20.759-35.928 15.951-38.611 13.672-2.684-2.279 0-47.093 0-47.093s6.646-68.36 11.849-71.399c5.204-3.038.253-6.836 1.985-11.393 1.732-4.557-1.732-16.961-1.732-16.961s-1.487-14.69-5.204-21.777c-3.717-7.086-3.226-26.584-3.226-26.584s-10.407-14.181-13.5-19.749c-3.092-5.567-5.084-19.999-4.341-30.891.505-7.36 4.289-18.078 6.69-24.245 1.153-2.955 1.985-4.869 1.985-4.869l.706.19 40.604 10.862 26.836 7.177z" fill="#182E35"/><path d="M258.921 156.008a27.638 27.638 0 01-5.568 10.96 27.046 27.046 0 01-9.718 7.378 26.322 26.322 0 01-11.872 2.283 26.01 26.01 0 01-11.588-3.283 26.394 26.394 0 01-8.924-8.173 27.135 27.135 0 01-4.427-11.385 27.673 27.673 0 01.979-12.259 27.59 27.59 0 016.184-10.616 26.562 26.562 0 013.741-3.331 27.091 27.091 0 017.269-3.818 26.186 26.186 0 0113.561-.904c4.509.899 8.7 2.976 12.163 6.03a26.777 26.777 0 017.599 11.392 27.55 27.55 0 011.053 13.788c-.149.652-.29 1.298-.452 1.938z" fill="#FBBCBC"/><path d="M210.439 130.761c-1.427 1.425-3.524 2.109-4.667 3.779-1.671 2.421-.834 6.174-2.98 8.17-.715.673-1.709 1.056-2.23 1.904-.883 1.429.038 3.425-.712 4.936-.75 1.51-3.152 2.336-2.999 4.036a3 3 0 001.212 1.874 6.287 6.287 0 003.397 1.729c2.051.166 4.013-1.437 6.047-1.08 1.651.293 2.91 1.834 4.578 2.028.273.059.559.011.801-.134.164-.133.294-.304.38-.499a253.7 253.7 0 006.941-14.102 16.828 16.828 0 012.11-3.791 5.43 5.43 0 011.595-1.433 5.311 5.311 0 012.01-.695c2.085-.146 3.975 1.476 4.791 3.43.817 1.953.755 4.171.57 6.294-.184 2.124-.506 4.275-.171 6.374.07.764.377 1.484.876 2.055.919.914 2.503.774 3.574.026a8.005 8.005 0 002.327-3.133 10.997 10.997 0 012.128-3.292c1.579-1.45 3.861-1.711 5.975-1.701 2.114.01 4.298.194 6.285-.596a12.444 12.444 0 004.168-3.2c1.547-1.63 3.063-3.44 3.53-5.649.51-2.409-.335-4.888-1.343-7.117-1.97-4.337-5.036-8.615-9.566-9.895a45.367 45.367 0 00-5.406-.788 45.44 45.44 0 01-7.428-2.192 5.933 5.933 0 00-1.833-.393 5.557 5.557 0 00-2.178.577 34.262 34.262 0 00-7.007 4.025 43.126 43.126 0 01-4.517 3.245 8.034 8.034 0 01-3.354 1.133c-.772.024-1.456-.305-2.198-.25-2.3.147-3.298 2.911-4.706 4.325zM212.043 118.482a6.22 6.22 0 00-2.196.283c-.875.429-1.14 1.474-1.551 2.342a8.828 8.828 0 01-2.332 3.155 5.243 5.243 0 002.502.202c-.378.977-.87 1.904-1.465 2.763a2.37 2.37 0 001.363-.025c.444-.142.84-.411 1.14-.775a14.909 14.909 0 001.554-2.357c.135-.249.316-.469.532-.649.867-.635 2.008.038 3.005.4a4.851 4.851 0 002.595.161 4.973 4.973 0 002.331-1.203c1.514-1.411 2.671-5.709.192-6.822-2.594-1.142-5.246 2.245-7.67 2.525z" fill="#182E35"/><path d="M244.393 111.498s-18.638-5.89-26.611 3.257l-3.211 9.083-1.4-.526-1.889 6.252s29.24 6.026 35.052 10.725c5.812 4.698 22.39 25.158 31.236 24.654 8.846-.505.537-5.153.537-5.153s-10.044-7.736-9.075-11.565c.969-3.829 3.29-24.764-24.639-36.727z" fill="#E6100F"/><path d="M262.025 153.958s3.499 13.813 12.746 14.39c9.248.576 6.847-5.21 6.847-5.21l-19.593-9.18z" fill="#E6100F"/><path d="M255.011 271.835l-1.591 52.41s-16.027-1.52-30.984-3.191c-12.043-1.344-23.394-2.795-25.141-3.646-2.23-1.071-7.01-1.898-10.779-2.423a131.615 131.615 0 00-5.204-.615s-.855.258-2.171.502c-2.869.531-7.909.964-10.845-1.641-3.754-3.335 6.11-15.45 8.571-18.359l.542-.63-3.345-31.522s-1.487-13.102-3.717-20.128a37.897 37.897 0 01-1.286-6.115 50.017 50.017 0 011.249-19.186 42.64 42.64 0 001.338-8.12c.372-7.026 21.372-34.18 26.576-36.649a11.154 11.154 0 005.323-5.423C208 151.5 205 179 229.5 184.5c7.5 6.5 13.418 21.248 17.705 33.702a165.534 165.534 0 017.322 42.536l.484 11.097z" fill="#1D5868"/><path d="M282.714 261.085l56.056-14.99 5.338 55.114-54.413 2.347-6.981-42.471z" fill="#049ABE"/><path d="M282.714 261.085l56.056-14.99 5.338 55.114-54.413 2.347-6.981-42.471z" fill="#757575" fill-opacity=".15"/><path d="M338.77 246.095l68.829-1.393.864 48.328-64.356 8.179-5.337-55.114z" fill="#049ABE"/><path d="M338.77 246.095l68.829-1.393.864 48.328-64.356 8.179-5.337-55.114z" fill="#000" fill-opacity=".2"/><path d="M358.148 227.239l-19.377 18.856 68.829-1.393 9.499-18.296-58.951.833zm-97.842 17.473l50.673-11.348 27.792 12.731-56.057 14.99-22.408-16.373zm92.34 14.485l7.298 75.353-38.686-.298-3.574-.036-27.909-.22-7.061-72.911 69.932-1.888z" fill="#049ABE"/><path d="M407.6 244.702l7.117 73.486-54.773 16.362-7.298-75.353 54.954-14.495z" fill="#049ABE"/><path d="M407.6 244.703l7.116 73.485-20.984 6.268-10.206 3.048-23.583 7.046-7.297-75.353 54.954-14.494z" fill="#757575" fill-opacity=".15"/><path d="M263.623 278.945l19.093-17.859 69.932-1.889-8.521 18.591-80.504 1.157z" fill="#049ABE"/><path d="M407.602 244.702l-54.954 14.495 19.783 14.873 58.815-16.044-23.644-13.324z" fill="#049ABE"/><path d="M263.623 278.945l19.093-17.859 69.932-1.889-8.521 18.591-80.504 1.157z" fill="#fff" fill-opacity=".1"/><path d="M407.602 244.702l-54.954 14.495 19.783 14.873 58.815-16.044-23.644-13.324zm-13.868 79.753l-10.205 3.049-1.521-15.702 9.502-3.454 2.224 16.107zm-61.754-.506l1.006 10.388-11.727-.085-.888-9.178 11.609-1.125zm-14.829 4.741l.535 5.526-11.72-.093-.417-4.31 11.602-1.123z" fill="#fff" fill-opacity=".1"/><path d="M320.018 295.489c-1.227 13.094-27.421 20.99-27.421 20.99l-27.716-7.302-3.76-.988-.832-11.13s1.526-.365 4.097-.936c13.63-3 56.667-11.653 55.632-.634z" fill="#FBBCBC"/><path d="M194.403 191.509s-17.827 10.985-14.18 31.939a356.887 356.887 0 009.58 39.944s.227 32.197 17.407 38.318c17.18 6.121 32.989 10.948 32.989 10.948s25.578-.435 28.866.314c3.289.749 10.807-18.001 8.648-20.502-2.158-2.5-26.025-5.274-29.564-9.452-3.538-4.178-10.724-6.113-10.724-6.113s-7.603-3.466-8.591-7.339c-.989-3.873.487-7.039.742-8.823.256-1.784-.714-18.594-.714-18.594s.234-60.312-34.459-50.64z" fill="#1D5868"/><path d="M571.866 186.525s-28.169-1.737-24.878 18.482c0 0-.66 3.573 2.506 5.196 0 0 .052-1.517 2.898-.994 1.011.174 2.039.225 3.062.152a6.269 6.269 0 003.706-1.578s7.932-3.352 11.016-16.609c0 0 2.276-2.89 2.187-3.633l-4.76 2.078s1.624 3.512.349 6.431c0 0-.156-6.302-1.068-6.158-.185 0-2.475 1.221-2.475 1.221s2.802 6.121.689 10.565c0 0 .801-7.539-1.564-10.125l-3.314 1.979s3.269 6.318 1.053 11.475c0 0 .571-7.91-1.757-10.989l-3.032 2.427s3.069 6.227 1.201 10.504c0 0-.245-9.207-1.861-9.905 0 0-2.653 2.397-3.061 3.383 0 0 2.105 4.55.8 6.909 0 0-.8-6.136-1.482-6.166 0 0-2.647 4.065-2.921 6.826a15.06 15.06 0 012.283-7.236 7.916 7.916 0 00-4.055 2.147s.416-2.875 4.708-3.125c0 0 2.186-3.087 2.772-3.276 0 0-4.27-.365-6.857.811 0 0 2.276-2.708 7.635-1.479l2.966-2.503s-5.627-.758-8.006.084c0 0 2.742-2.397 8.814-.653l3.261-1.994s-4.796-1.054-7.65-.675c0 0 3.017-1.661 8.607.136l2.335-1.069s-3.514-.705-4.544-.819c-1.031-.114-1.083-.402-1.083-.402a11.9 11.9 0 016.598.758s5.011-1.858 4.922-2.176zm-171.127-17.952s6.486-28.13-13.558-28.229c0 0-3.329-1.274-5.427 1.638 0 0 1.431.311.46 3.087-.336.982-.56 2-.667 3.034a6.634 6.634 0 00.882 4.042s1.875 8.57 14.084 13.94c0 0 2.402 2.791 3.129 2.821l-1.186-5.149s-3.662 1.039-6.257-.759c0 0 6.101.918 6.108 0 0-.189-.741-2.7-.741-2.7s-6.368 1.775-10.296-1.115c0 0 7.123 2.094 10.022.16l-1.335-3.732s-6.671 2.222-11.237-.895c0 0 7.524 1.927 10.889.106l-1.816-3.473s-6.523 2.032-10.326-.584c0 0 8.895 1.319 9.859-.182 0 0-1.853-3.087-2.735-3.663 0 0-4.715 1.35-6.791-.372 0 0 6.042.235 6.183-.417 0 0-3.462-3.36-6.101-4.119a14.422 14.422 0 016.59 3.535 8.307 8.307 0 00-1.379-4.452s2.698.91 2.224 5.309c0 0 2.595 2.73 2.676 3.352 0 0 1.075-4.24.386-7.053 0 0 2.223 2.76.126 7.956l1.897 3.45s1.72-5.536 1.283-8.084c0 0 1.846 3.17-.875 8.995l1.371 3.632s1.831-4.656 1.95-7.584c0 0 1.09 3.322-1.601 8.654l.637 2.533s1.275-3.421 1.557-4.437c.282-1.016.571-1.024.571-1.024a12.647 12.647 0 01-1.846 6.523s.971 5.294 1.29 5.256zm-61.69 9.586s-22.625-17.315-30.712 1.441c0 0-2.469 2.617-.697 5.749 0 0 .845-1.221 2.965.804a13.006 13.006 0 002.476 1.851 6.242 6.242 0 003.981.758s8.421 1.661 18.117-7.675c0 0 3.462-1.138 3.788-1.805l-5.107-.918s-.534 3.845-3.166 5.567c0 0 3.254-5.355 2.409-5.742-.17-.083-2.72-.379-2.72-.379s-.949 6.69-5.1 9.215c0 0 4.722-5.847 4.136-9.336l-3.877-.212s-.66 7.121-5.285 10.185c0 0 4.722-6.287 4.448-10.17l-3.84.318s-.779 6.925-4.641 9.443c0 0 4.737-7.827 3.766-9.314 0 0-3.506.508-4.374 1.1 0 0-.674 4.96-3.046 6.219 0 0 2.631-5.574 2.097-5.961 0 0-4.395 1.903-6.123 4.073a14.55 14.55 0 015.797-4.763 7.813 7.813 0 00-4.536-.486s1.882-2.169 5.604.038c0 0 3.484-1.342 4.077-1.175 0 0-3.373-2.708-6.168-3.178 0 0 3.366-.986 7.183 3.033l3.848-.401s-4.278-3.793-6.731-4.43c0 0 3.58-.462 7.709 4.407l3.796.174s-3.433-3.58-6.02-4.869c0 0 3.403.303 7.109 4.953l2.528.417s-2.557-2.564-3.358-3.231c-.8-.668-.689-.948-.689-.948a12.245 12.245 0 015.107 4.338s5.152 1.221 5.249.91zm75.322-160.87S391.747-.033 383.659 18.73c0 0-2.468 2.617-.696 5.749 0 0 .845-1.221 2.965.804.755.711 1.588 1.33 2.483 1.843a6.233 6.233 0 003.981.758s8.421 1.661 18.117-7.683c0 0 3.462-1.13 3.781-1.805l-5.108-.902s-.526 3.845-3.165 5.567c0 0 3.262-5.355 2.416-5.742-.17-.083-2.72-.379-2.72-.379s-.979 6.705-5.13 9.215c0 0 4.715-5.847 4.137-9.336l-3.877-.212s-.668 7.121-5.286 10.178c0 0 4.722-6.288 4.448-10.171l-3.833.319s-.785 6.932-4.647 9.45c0 0 4.744-7.827 3.773-9.314 0 0-3.507.508-4.374 1.1 0 0-.674 4.96-3.047 6.219 0 0 2.632-5.575 2.098-5.969 0 0-4.396 1.911-6.123 4.08a14.48 14.48 0 015.797-4.762 7.765 7.765 0 00-4.544-.486s1.89-2.169 5.612.038c0 0 3.484-1.35 4.077-1.176 0 0-3.373-2.707-6.168-3.185 0 0 3.358-.978 7.176 3.034l3.847-.402s-4.27-3.792-6.731-4.437c0 0 3.581-.455 7.717 4.414l3.795.167s-3.432-3.58-6.026-4.862c0 0 3.41.304 7.116 4.953l2.521.417s-2.565-2.533-3.366-3.185c-.801-.653-.689-.94-.689-.94a12.223 12.223 0 015.107 4.337s5.152 1.153 5.278.865zm86.45 21.941s-9.044-27.386-26.101-16.624c0 0-3.484.758-3.759 4.33 0 0 1.372-.515 1.98 2.366.225 1.026.566 2.02 1.015 2.966a6.498 6.498 0 002.847 2.95s6.019 6.257 19.184 4.187c0 0 3.477 1.077 4.114.705l-3.706-3.724s-2.565 2.86-5.693 2.746c0 0 5.656-2.518 5.189-3.33-.096-.159-2.031-1.88-2.031-1.88s-4.492 4.952-9.311 4.626c0 0 7.124-2.078 8.577-5.31l-3.069-2.419s-4.492 5.476-10 5.31c0 0 7.413-2.435 9.288-5.803l-3.335-1.964s-4.448 5.256-9.059 5.09c0 0 8.243-3.694 8.265-5.484 0 0-3.165-1.616-4.21-1.63 0 0-3.306 3.693-5.931 3.359 0 0 5.249-3.072 5.026-3.701 0 0-4.67-.979-7.301-.19a14.137 14.137 0 017.413-.569 8.05 8.05 0 00-3.477-3.033s2.758-.69 4.603 3.284c0 0 3.618.917 4.003 1.395 0 0-1.275-4.179-3.313-6.196 0 0 3.313 1.145 4.218 6.69l3.395 1.895s-1.401-5.62-3.091-7.584c0 0 3.209 1.699 3.906 8.108l3.04 2.343s-.845-4.945-2.269-7.508c0 0 2.639 2.23 3.114 8.213l1.846 1.806s-.682-3.595-.964-4.612c-.282-1.016-.052-1.084-.052-1.084a12.722 12.722 0 011.801 6.537s3.588 3.937 3.848 3.74zm-59.022 1.35s-28.095-3.2-25.775 17.194c0 0-.837 3.534 2.224 5.309 0 0 .126-1.517 2.965-.834 1.004.22 2.028.325 3.054.31a6.285 6.285 0 003.818-1.387s8.088-2.935 11.861-16.018c0 0 2.416-2.769 2.364-3.52l-4.855 1.836s1.483 3.587 0 6.439c0 0 .156-6.303-.741-6.204-.186 0-2.528 1.092-2.528 1.092s2.491 6.257.163 10.618c0 0 1.171-7.493-1.06-10.193l-3.447 1.82s2.965 6.485.482 11.52c0 0 .963-7.872-1.209-11.065l-3.15 2.276s2.758 6.378.675 10.557c0 0 .214-9.207-1.364-9.989 0 0-2.773 2.276-3.225 3.216 0 0 1.875 4.627.46 6.94 0 0-.497-6.166-1.149-6.227 0 0-2.847 3.921-3.262 6.69a14.97 14.97 0 012.639-7.115 7.894 7.894 0 00-4.151 1.934s.548-2.844 4.848-2.874c0 0 2.335-2.966 2.965-3.125 0 0-4.248-.584-6.894.455 0 0 2.409-2.594 7.702-1.084l3.121-2.344s-5.642-1.168-8.028-.41c0 0 2.861-2.275 8.836-.19l3.358-1.827s-4.737-1.304-7.606-1.07c0 0 3.091-1.516 8.584.585l2.387-.948s-3.476-.888-4.499-1.055c-1.023-.166-1.06-.455-1.06-.455a11.951 11.951 0 016.553 1.093s4.996-1.631 4.944-1.95zm245.812 223.107s-28.08-3.201-25.76 17.171c0 0-.837 3.534 2.224 5.309 0 0 .126-1.517 2.965-.842a12.56 12.56 0 003.054.311 6.234 6.234 0 003.818-1.388s8.088-2.935 11.824-16.01c0 0 2.416-2.776 2.364-3.52l-4.855 1.828s1.483 3.595 0 6.447c0 0 .156-6.31-.741-6.204-.186 0-2.528 1.085-2.528 1.085s2.491 6.257.163 10.618c0 0 1.171-7.486-1.06-10.194l-3.447 1.828s2.965 6.485.489 11.521c0 0 .956-7.873-1.216-11.073l-3.15 2.275s2.758 6.378.675 10.55c0 0 .214-9.208-1.364-9.981 0 0-2.765 2.275-3.225 3.215 0 0 1.883 4.627.46 6.94 0 0-.497-6.166-1.149-6.227 0 0-2.847 3.921-3.262 6.69a14.965 14.965 0 012.639-7.114 7.82 7.82 0 00-4.151 1.934s.548-2.852 4.848-2.882c0 0 2.342-2.966 2.965-3.118 0 0-4.248-.591-6.894.448 0 0 2.409-2.586 7.709-1.077l3.114-2.344s-5.575-1.077-7.999-.333c0 0 2.861-2.276 8.836-.198l3.358-1.82s-4.736-1.304-7.605-1.069c0 0 3.091-1.517 8.584.584l2.387-.956s-3.477-.887-4.5-1.046c-1.023-.16-1.06-.455-1.06-.455 2.241-.268 4.51.107 6.553 1.084 0 0 5.011-1.661 4.937-1.987zm42.928 26.833s-28.08-3.193-25.76 17.171c0 0-.83 3.534 2.224 5.309 0 0 .126-1.517 2.966-.834 1 .222 2.023.324 3.046.303a6.317 6.317 0 003.803-1.38s8.08-2.935 11.816-16.018c0 0 2.424-2.768 2.365-3.519l-4.856 1.827s1.483 3.595 0 6.447c0 0 .156-6.302-.741-6.204-.185 0-2.528 1.085-2.528 1.085s2.491 6.257.163 10.618c0 0 1.172-7.486-1.06-10.186l-3.447 1.82s2.966 6.485.49 11.521c0 0 .956-7.873-1.216-11.066l-3.151 2.276s2.758 6.378.682 10.557c0 0 .208-9.215-1.371-9.989 0 0-2.765 2.276-3.225 3.216 0 0 1.883 4.627.46 6.94 0 0-.497-6.166-1.149-6.227 0 0-2.847 3.921-3.254 6.689a15.016 15.016 0 012.631-7.114 7.901 7.901 0 00-4.151 1.934s.556-2.851 4.856-2.874c0 0 2.335-2.966 2.965-3.125 0 0-4.248-.584-6.894.455 0 0 2.409-2.594 7.709-1.084l3.114-2.344s-5.575-1.077-7.999-.334c0 0 2.861-2.275 8.836-.189l3.358-1.828s-4.737-1.304-7.605-1.069c0 0 3.091-1.517 8.584.584l2.387-.948s-3.477-.888-4.492-1.055c-1.016-.166-1.068-.455-1.068-.455 2.241-.263 4.51.115 6.553 1.092 0 0 5.033-1.676 4.959-2.002zM635.232 64.501s-22.625-17.315-30.712 1.441c0 0-2.469 2.617-.697 5.75 0 0 .845-1.222 2.965.803a12.995 12.995 0 002.476 1.85 6.246 6.246 0 003.981.759s8.421 1.66 18.124-7.675c0 0 3.455-1.138 3.781-1.805l-5.093-.94s-.533 3.844-3.165 5.566c0 0 3.254-5.354 2.409-5.741-.17-.084-2.713-.38-2.713-.38s-.956 6.69-5.107 9.215c0 0 4.722-5.847 4.136-9.336l-3.877-.212s-.66 7.122-5.285 10.185c0 0 4.729-6.287 4.447-10.17l-3.84.318s-.741 6.925-4.64 9.443c0 0 4.744-7.827 3.766-9.314 0 0-3.507.509-4.374 1.1 0 0-.667 4.96-3.039 6.22 0 0 2.624-5.575 2.09-5.962 0 0-4.396 1.904-6.123 4.073a14.548 14.548 0 015.797-4.763 7.817 7.817 0 00-4.537-.486s1.891-2.169 5.612.038c0 0 3.477-1.342 4.07-1.175 0 0-3.373-2.708-6.168-3.178 0 0 3.366-.986 7.183 3.034l3.848-.402s-4.27-3.792-6.731-4.43c0 0 3.58-.462 7.709 4.407l3.803.174s-3.44-3.58-6.027-4.869c0 0 3.41.304 7.109 4.953l2.528.417s-2.558-2.563-3.358-3.23c-.801-.668-.682-.888-.682-.888a12.255 12.255 0 015.1 4.338s5.137 1.183 5.234.872zm17.479 125.004s-7.798-27.781-25.337-17.808c0 0-3.514.554-3.951 4.149 0 0 1.393-.448 1.875 2.457.179 1.044.477 2.062.89 3.034a6.46 6.46 0 002.713 3.094s5.737 6.523 18.977 5.067c0 0 3.425 1.228 4.077.895l-3.506-3.899s-2.691 2.746-5.805 2.488c0 0 5.753-2.275 5.308-3.087-.089-.167-1.942-1.979-1.942-1.979s-4.7 4.747-9.503 4.194c0 0 7.212-1.745 8.799-4.885l-2.966-2.563s-4.729 5.263-10.222 4.854c0 0 7.472-2.101 9.533-5.37l-3.247-2.116s-4.707 5.044-9.273 4.665c0 0 8.399-3.315 8.502-5.097 0 0-3.098-1.76-4.144-1.82 0 0-3.461 3.534-6.093 3.079 0 0 5.382-2.829 5.189-3.466 0 0-4.626-1.191-7.287-.531a14.152 14.152 0 017.413-.22 8.028 8.028 0 00-3.336-3.185s2.788-.569 4.448 3.488c0 0 3.566 1.077 3.936 1.578 0 0-1.089-4.24-3.039-6.341 0 0 3.262 1.29 3.921 6.872l3.307 2.055s-1.157-5.688-2.758-7.69c0 0 3.128 1.843 3.551 8.274l2.965 2.48s-.63-4.975-1.935-7.584c0 0 2.543 2.351 2.75 8.343l1.765 1.896s-.519-3.626-.742-4.657c-.222-1.031 0-1.176 0-1.176a12.672 12.672 0 011.52 6.614s3.38 4.08 3.647 3.898zm-173.773 62.601s-15.145-24.406-29.207-9.799c0 0-3.217 1.517-2.654 5.119 0 0 1.223-.834 2.483 1.821.453.94 1.016 1.821 1.676 2.624a6.31 6.31 0 003.447 2.184s7.301 4.611 19.607-.607c0 0 3.625.197 4.158-.311l-4.447-2.73s-1.831 3.413-4.893 4.058c0 0 4.907-3.793 4.248-4.49-.126-.137-2.409-1.335-2.409-1.335s-3.21 5.9-7.969 6.757c0 0 6.441-3.754 7.109-7.227l-3.551-1.601s-3.091 6.409-8.473 7.585c0 0 6.597-4.164 7.672-7.896l-3.706-1.092s-3.128 6.197-7.613 7.145c0 0 7.146-5.598 6.753-7.342 0 0-3.455-.796-4.448-.554 0 0-2.35 4.392-5.004 4.71 0 0 4.389-4.262 4.026-4.823 0 0-4.767.189-7.139 1.592a14.208 14.208 0 017.072-2.351 7.893 7.893 0 00-4.07-2.101s2.513-1.342 5.189 2.071c0 0 3.707 0 4.218.379 0 0-2.224-3.792-4.662-5.21 0 0 3.484.303 5.648 5.468l3.744 1.016s-2.676-5.119-4.759-6.583c0 0 3.506.865 5.678 6.925l3.499 1.516s-1.972-4.588-3.951-6.734c0 0 3.083 1.516 4.929 7.212l2.224 1.312s-1.482-3.329-2.009-4.247c-.526-.918-.319-1.13-.319-1.13a12.516 12.516 0 013.27 5.908s4.432 3.019 4.633 2.761z" fill="#666" fill-opacity=".75"/><path d="M485.287 99.037s-28.328-1.738-25.018 18.496c0 0-.663 3.574 2.52 5.198 0 0 .052-1.518 2.907-.994 1.017.174 2.05.225 3.079.152a6.333 6.333 0 003.772-1.586s7.969-3.347 11.07-16.613c0 0 2.296-2.9 2.236-3.643l-4.786 2.087s1.633 3.514.343 6.436c0 0-.149-6.307-1.073-6.163-.187 0-2.483 1.222-2.483 1.222s2.811 6.117.686 10.572c0 0 .805-7.544-1.565-10.132l-3.37 2.004s3.288 6.322 1.059 11.482c0 0 .574-7.915-1.767-10.997l-3.056 2.421s3.093 6.239 1.207 10.519c0 0-.246-9.213-1.871-9.911 0 0-2.669 2.398-3.071 3.384 0 0 2.11 4.554.798 6.914 0 0-.806-6.139-1.491-6.17 0 0-2.662 4.068-2.937 6.831a14.943 14.943 0 012.288-7.241 7.936 7.936 0 00-4.07 2.148s.41-2.876 4.726-3.127c0 0 2.237-3.089 2.788-3.278 0 0-4.294-.365-6.895.812 0 0 2.288-2.71 7.685-1.518l2.982-2.505s-5.65-.759-8.051.084c0 0 2.758-2.398 8.864-.653l3.28-1.996s-4.816-1.062-7.686-.675c0 0 3.027-1.662 8.647.136l2.349-1.07s-3.534-.706-4.563-.819c-1.028-.114-1.088-.403-1.088-.403a12.002 12.002 0 016.627.759s5.032-1.844 4.928-2.163zM578 141.075s-14.484-24.886-29.073-10.724c0 0-3.28 1.442-2.818 5.039 0 0 1.245-.804 2.438 1.89.426.958.964 1.86 1.603 2.687a6.324 6.324 0 003.399 2.277s7.194 4.842 19.725 0c0 0 3.638.311 4.189-.183l-4.376-2.868s-1.938 3.346-5.039 3.901c0 0 5.047-3.666 4.413-4.357-.134-.144-2.385-1.419-2.385-1.419s-3.407 5.806-8.2 6.512c0 0 6.59-3.552 7.357-6.998l-3.518-1.685s-3.303 6.322-8.752 7.332c0 0 6.761-3.954 7.954-7.65l-3.682-1.215s-3.34 6.072-7.873 6.907c0 0 7.351-5.374 7.008-7.127 0 0-3.444-.91-4.473-.698 0 0-2.497 4.318-5.174 4.554 0 0 4.54-4.114 4.197-4.691 0 0-4.8.038-7.223 1.367a14.35 14.35 0 017.179-2.125 7.974 7.974 0 00-4.033-2.232s2.572-1.267 5.218 2.232c0 0 3.727.129 4.227.516 0 0-2.11-3.795-4.525-5.358 0 0 3.489.409 5.509 5.646l3.727 1.138s-2.527-5.206-4.584-6.739c0 0 3.503.979 5.501 7.104l3.466 1.647s-1.841-4.653-3.727-6.831c0 0 3.049 1.617 4.741 7.369l2.184 1.382s-1.401-3.378-1.893-4.311c-.492-.934-.283-1.138-.283-1.138a12.547 12.547 0 013.108 6.01s4.272 3.089 4.488 2.839zm-91.64 52.328s.746-28.915-18.987-24.84c0 0-3.533-.554-5.024 2.74 0 0 1.491 0 1.073 2.922a13.59 13.59 0 00-.044 3.142 6.54 6.54 0 001.677 3.795s3.556 7.999 16.683 10.716c0 0 2.915 2.239 3.646 2.117l-2.237-4.796s-3.392 1.776-6.306.569c0 0 6.187-.372 6.016-1.298 0-.19-1.283-2.497-1.283-2.497s-5.919 3.074-10.354 1.055c0 0 7.454.569 9.892-1.927l-2.08-3.363s-6.098 3.552-11.241 1.458c0 0 7.79.318 10.742-2.163l-2.483-3.036s-6.015 3.354-10.279 1.578c0 0 9.035-.554 9.691-2.231 0 0-2.446-2.633-3.43-3.036 0 0-4.368 2.277-6.754 1.048 0 0 5.964-1.017 6.001-1.693 0 0-4.077-2.572-6.828-2.762 2.537.046 5.017.768 7.194 2.095a8.198 8.198 0 00-2.237-4.076s2.841.326 3.228 4.705c0 0 3.109 2.141 3.31 2.733 0 0 .216-4.379-1.029-6.99 0 0 2.744 2.239 1.715 7.764l2.557 2.99s.581-5.783-.351-8.189c0 0 2.446 2.725.94 8.993l2.065 3.271s.879-4.94.41-7.847c0 0 1.729 3.036.149 8.811l1.133 2.353s.574-3.62.648-4.675c.075-1.055.358-1.123.358-1.123.449 2.264.271 4.61-.514 6.777 0 0 2.005 5.009 2.333 4.91zM619 554c16.569 0 30-2.255 30-5.037s-13.431-5.037-30-5.037c-16.569 0-30 2.255-30 5.037S602.431 554 619 554z" fill="#1D5868"/><path d="M631.437 540.719a8.595 8.595 0 002.858-4.282c.373-1.704-.358-3.741-1.992-4.363-1.836-.696-3.798.563-5.29 1.837s-3.186 2.733-5.133 2.467a7.778 7.778 0 002.171-3.318 7.72 7.72 0 00.246-3.949 3.025 3.025 0 00-.671-1.481c-1.022-1.082-2.865-.615-4.089.237-3.879 2.711-4.961 7.94-4.984 12.652-.388-1.697-.059-3.467-.067-5.186-.007-1.718-.492-3.703-1.977-4.607a5.933 5.933 0 00-2.984-.741c-1.746-.059-3.693.111-4.88 1.378-1.492 1.57-1.096 4.215.187 5.926 1.283 1.711 3.245 2.815 5.051 4.015a11.237 11.237 0 013.611 3.415c.106.193.194.397.261.607h10.938a30.24 30.24 0 006.744-4.607z" fill="#1D5868"/><path d="M53.797 555.599s11.41-.357 14.867-2.864c3.457-2.506 17.567-5.492 18.421-1.473.855 4.018 17.158 19.968 4.267 20.075-12.89.106-29.95-2.051-33.385-4.193-3.434-2.142-4.17-11.545-4.17-11.545z" fill="#6B6B6B"/></svg>