<svg xmlns="http://www.w3.org/2000/svg" viewBox="0 0 128 128" fill="none"><path fill-rule="evenodd" clip-rule="evenodd" d="M38.14 3.034a9.511 9.511 0 00-10.455 8.463l-.498 4.73-9.459-.996a4.756 4.756 0 00-5.227 4.232l-9.459 89.86a4.755 4.755 0 004.232 5.227l104.048 10.952a4.755 4.755 0 005.227-4.231l9.459-89.86a4.755 4.755 0 00-4.231-5.228l-9.459-.995.497-4.73a9.51 9.51 0 00-8.463-10.454L85.434 8.012a9.511 9.511 0 00-10.454 8.463l-.498 4.73-9.46-.996.499-4.73a9.511 9.511 0 00-8.464-10.454L38.14 3.034zM97.307 109.68l-67.253-7.079 6.97-66.213 65.55 6.9-.846 8.04-31.499-3.315-2.24 21.283 23.837 2.509-.448 4.256-23.837-2.509-2.589 24.593 33.201 3.495-.846 8.04z" fill="#049ABE"/></svg>